<?xml version="1.0" encoding="UTF-8"?><svg id="Layer_2" xmlns="http://www.w3.org/2000/svg" viewBox="0 0 707.55 345.3"><defs><style>.cls-1{fill:#f3b120;}.cls-1,.cls-2{stroke-width:0px;}.cls-2{fill:#fff;}</style></defs><g id="DUO"><g id="Duo-Stacked"><path class="cls-2" d="M203.29,51.54c0-5.45,2.72-8.18,8.18-8.18h9.67c5.45,0,8.18,2.73,8.18,8.18v75.86h35.25c5.45,0,8.18,2.73,8.18,8.18v5.95c0,5.45-2.73,8.18-8.18,8.18h-53.1c-5.45,0-8.18-2.72-8.18-8.18V51.54Z"/><path class="cls-2" d="M283.46,51.54c0-5.45,2.72-8.18,8.18-8.18h9.67c5.45,0,8.18,2.73,8.18,8.18v89.99c0,5.45-2.73,8.18-8.18,8.18h-9.67c-5.45,0-8.18-2.72-8.18-8.18V51.54Z"/><path class="cls-2" d="M352.91,65.67h-24.09c-5.45,0-8.18-2.73-8.18-8.18v-5.95c0-5.45,2.72-8.18,8.18-8.18h74.22c5.45,0,8.18,2.73,8.18,8.18v5.95c0,5.45-2.73,8.18-8.18,8.18h-24.09v75.86c0,5.45-2.73,8.18-8.18,8.18h-9.67c-5.45,0-8.18-2.72-8.18-8.18v-75.86Z"/><path class="cls-1" d="M152.53,166.08h-7.4c-3.04,0-5.51-2.47-5.51-5.51v-27.03c0-4.15-2.11-8.01-5.59-10.26l-11.3-7.28c-3.2-2.06-5.14-5.61-5.14-9.42V36.81c0-3.95-2.01-7.64-5.33-9.78L72.21,1.24c-2.56-1.65-5.85-1.65-8.41,0L24.04,26.85c-3.5,2.26-5.62,6.14-5.62,10.3v123.42c0,3.04-2.47,5.51-5.51,5.51h-7.4c-3.04,0-5.51,2.47-5.51,5.51h0c0,12.63,6.74,23.71,16.81,29.84.98.59,1.61,1.61,1.71,2.74,1.05,11.54,7.73,21.47,17.27,27.02,1.66.97,2.82,2.61,3.11,4.51l14.91,95.85c1.23,7.91,8.04,13.74,16.04,13.74h18.31c8,0,14.81-5.83,16.04-13.74l14.91-95.85c.3-1.9,1.45-3.54,3.11-4.51,9.54-5.55,16.23-15.48,17.27-27.02.1-1.13.73-2.15,1.7-2.74,10.09-6.14,16.83-17.24,16.82-29.89,0-3.03-2.48-5.47-5.51-5.47ZM117.59,131.17c0-2.32,2.57-3.72,4.51-2.46l3.15,2.03c2.09,1.35,3.35,3.66,3.35,6.15v23.69c0,3.03-2.48,5.51-5.51,5.51h-.02c-3.03,0-5.49-2.46-5.49-5.49v-29.42ZM51.53,160.62v-75.22c0-3.84,1.95-7.42,5.18-9.5l2.28-1.47c1.52-.98,3.51.11,3.51,1.92v84.24c0,3.02-2.47,5.48-5.48,5.48h-.03c-3.01,0-5.46-2.44-5.46-5.46ZM73.51,18.88c0-1.6,1.77-2.56,3.11-1.7l27.06,17.43c1.8,1.16,2.88,3.15,2.88,5.29v63.27c0,1.05-1.16,1.68-2.04,1.11l-4.57-2.95c-2.75-1.77-4.41-4.82-4.41-8.08v-44.17c0-4.11-2.09-7.94-5.54-10.17l-13.68-8.81c-1.75-1.13-2.81-3.07-2.81-5.15v-6.06ZM73.51,45.35c0-1.71,1.89-2.74,3.32-1.81l5.42,3.49c1.42.91,2.27,2.48,2.27,4.17v37.63c0,1.11-1.23,1.78-2.16,1.18l-4.65-2.99c-2.62-1.69-4.21-4.6-4.21-7.72v-33.95ZM73.51,103.5c0-2.63,2.91-4.22,5.12-2.79l23.9,15.4c2.51,1.62,4.03,4.4,4.03,7.39v35.16c0,4.09-3.31,7.41-7.4,7.42h-18.26c-4.09-.01-7.4-3.33-7.4-7.42v-55.15ZM29.44,160.57V41.36c0-3.05,1.55-5.89,4.11-7.54l24.57-15.82c1.89-1.22,4.38.14,4.38,2.39v34.44c0,2.64-1.34,5.1-3.56,6.54l-12.7,8.18c-3.57,2.3-5.73,6.25-5.73,10.5v80.5c0,3.04-2.49,5.53-5.53,5.53h-.03c-3.04,0-5.5-2.46-5.5-5.5ZM106.88,242.75l-13.25,85.13c-.53,3.44-3.33,6.17-6.81,6.38-4.26.27-7.81-3.11-7.81-7.32v-74.24c0-9.27,7.52-16.79,16.79-16.79,0,0,2.44-.01,5.14-.03,3.67-.03,6.5,3.24,5.93,6.87ZM126.24,211.41c-3.88,7.97-12.05,13.47-21.49,13.47h-51.46c-9.44,0-17.62-5.51-21.49-13.47-1.1-2.27.59-4.9,3.11-4.9h88.21s0,0,0,0c2.52,0,4.22,2.64,3.11,4.9ZM144.27,182.71c-4.01,7.58-11.98,12.77-21.14,12.77H34.92c-9.16,0-17.13-5.18-21.14-12.77-1.35-2.55.54-5.61,3.42-5.61h123.65c2.88,0,4.77,3.06,3.42,5.61Z"/><path class="cls-2" d="M207.23,181.81c0-2.1,1.05-3.15,3.15-3.15h3.72c2.1,0,3.15,1.05,3.15,3.15v29.18h13.56c2.1,0,3.15,1.05,3.15,3.15v2.29c0,2.1-1.05,3.15-3.15,3.15h-20.42c-2.1,0-3.15-1.05-3.15-3.15v-34.61Z"/><path class="cls-2" d="M234.69,204.81c0-2.17.35-4.2,1.06-6.06.7-1.87,1.72-3.49,3.03-4.86,1.32-1.37,2.93-2.46,4.84-3.26,1.91-.8,4.04-1.2,6.41-1.2,2.18,0,4.11.36,5.81,1.09,1.69.72,3.13,1.72,4.29,2.98,1.16,1.26,2.04,2.74,2.63,4.46.59,1.71.89,3.57.89,5.55,0,.76-.31,1.5-.92,2.2-.61.71-1.41,1.06-2.4,1.06h-15.5c.38,1.81,1.22,3.13,2.52,3.96,1.3.83,2.74,1.24,4.35,1.24.99,0,1.95-.13,2.86-.4.91-.27,1.75-.59,2.52-.97.95-.42,1.77-.55,2.46-.4.69.15,1.28.69,1.77,1.6l.8,1.5c.46.88.61,1.7.46,2.45-.15.75-.67,1.37-1.55,1.87-1.07.61-2.45,1.21-4.15,1.79-1.7.57-3.69.86-5.98.86-2.63,0-4.96-.44-6.98-1.32-2.02-.88-3.71-2.03-5.06-3.46-1.35-1.43-2.38-3.08-3.09-4.95-.71-1.87-1.06-3.78-1.06-5.72ZM253.85,201.09c0-1.22-.36-2.26-1.09-3.12s-1.72-1.29-2.97-1.29c-1.45,0-2.54.44-3.26,1.32-.72.88-1.22,1.91-1.49,3.09h8.81Z"/><path class="cls-2" d="M270.73,224.32c.38-1,.88-1.64,1.49-1.92s1.45-.26,2.52.08c.72.23,1.5.42,2.32.57.82.15,1.8.23,2.95.23.92,0,1.79-.09,2.63-.28.84-.19,1.57-.49,2.2-.9.63-.42,1.13-.98,1.52-1.7s.57-1.62.57-2.72v-2.17c0-.15.02-.29.06-.4h-.11c-.8,1.18-1.76,2.08-2.89,2.69-1.12.61-2.56.92-4.32.92-2.25,0-4.23-.42-5.92-1.26-1.7-.84-3.1-1.94-4.21-3.32-1.11-1.37-1.94-2.95-2.49-4.72-.55-1.77-.83-3.61-.83-5.52s.27-3.67.8-5.41c.53-1.73,1.36-3.28,2.49-4.63,1.12-1.35,2.54-2.43,4.23-3.23,1.69-.8,3.69-1.2,5.98-1.2,1.6,0,2.91.2,3.92.6,1.01.4,1.84.85,2.49,1.34.69.57,1.24,1.2,1.66,1.89h.11s-.06-.1-.06-.17v-.52c0-.69.27-1.27.8-1.74.53-.48,1.32-.72,2.34-.72h2.69c2.1,0,3.15,1.05,3.15,3.15v23.63c0,2.71-.5,4.98-1.49,6.84-.99,1.85-2.27,3.36-3.83,4.55-1.56,1.18-3.31,2.03-5.23,2.55-1.93.52-3.82.77-5.69.77-1.72,0-3.39-.14-5.01-.43-1.62-.29-2.87-.62-3.75-1.01-1.87-.77-2.44-2.13-1.72-4.09l.63-1.73ZM281.82,210.41c.65,0,1.29-.09,1.92-.28.63-.19,1.2-.52,1.72-.99.52-.47.93-1.12,1.23-1.96.31-.83.46-1.89.46-3.17s-.16-2.33-.49-3.15c-.33-.81-.74-1.45-1.26-1.93s-1.12-.79-1.83-.97c-.71-.17-1.42-.25-2.15-.25-1.75,0-3.07.55-3.95,1.64-.88,1.09-1.31,2.49-1.31,4.19,0,.91.11,1.78.34,2.61.23.83.57,1.56,1.03,2.18.46.62,1.04,1.12,1.74,1.5.71.38,1.56.57,2.55.57Z"/><path class="cls-2" d="M300.7,211.27c0-1.98.52-3.62,1.57-4.92,1.05-1.3,2.39-2.33,4.03-3.09,1.64-.76,3.43-1.29,5.38-1.6,1.95-.31,3.83-.46,5.66-.46h.86v-.52c0-1.22-.42-2.07-1.26-2.55-.84-.48-1.81-.71-2.92-.71-.95,0-1.89.13-2.8.4-.92.27-1.76.57-2.52.91-1.94.84-3.36.38-4.23-1.37l-.69-1.43c-.42-.88-.54-1.69-.34-2.43s.72-1.34,1.6-1.8c1.1-.54,2.5-1.05,4.18-1.55,1.68-.5,3.58-.74,5.72-.74,4.08,0,7.29,1.06,9.64,3.18,2.35,2.12,3.52,5.06,3.52,8.84v14.99c0,2.1-1.05,3.15-3.15,3.15h-2.75c-2.1,0-3.15-1.07-3.15-3.2v-.63c0-.08.02-.13.06-.17h-.11c-.57.88-1.28,1.66-2.12,2.34-.72.61-1.64,1.15-2.74,1.63-1.11.48-2.38.71-3.83.71s-2.71-.23-3.89-.69c-1.18-.46-2.19-1.09-3.03-1.89-.84-.8-1.5-1.75-1.97-2.86-.48-1.1-.71-2.29-.71-3.55ZM310.49,210.36c0,.69.24,1.28.71,1.77s1.17.74,2.09.74c.72,0,1.39-.16,2-.49.61-.32,1.14-.73,1.6-1.23s.81-1.05,1.06-1.66c.25-.61.37-1.22.37-1.83v-.8h-.92c-.76,0-1.55.06-2.37.17-.82.11-1.56.3-2.23.57-.67.27-1.22.62-1.66,1.06s-.66,1-.66,1.69Z"/><path class="cls-2" d="M333.37,181.81c0-2.1,1.05-3.15,3.15-3.15h3.6c2.1,0,3.15,1.05,3.15,3.15v26.43c0,1.11.16,1.85.49,2.23.32.38.71.61,1.17.69.69.08,1.24.32,1.66.74s.63,1.07.63,1.94v2.8c0,.99-.25,1.77-.74,2.34-.5.57-1.32.86-2.46.86-1.26,0-2.53-.11-3.81-.34-1.28-.23-2.42-.73-3.43-1.52s-1.83-1.91-2.46-3.37c-.63-1.47-.95-3.44-.95-5.92v-26.89Z"/><path class="cls-2" d="M366.38,181.81c0-2.1,1.05-3.15,3.15-3.15h3.72c2.1,0,3.15,1.05,3.15,3.15v34.61c0,2.1-1.05,3.15-3.15,3.15h-3.72c-2.1,0-3.15-1.05-3.15-3.15v-34.61Z"/><path class="cls-2" d="M382.57,193.25c0-2.1,1.05-3.15,3.15-3.15h3.2c2.06,0,3.09,1.05,3.09,3.15v.51c0,.08,0,.15-.03.23-.02.08-.03.15-.03.23v.29h.11c.34-.57.78-1.16,1.32-1.77s1.18-1.15,1.95-1.63c.76-.48,1.65-.88,2.66-1.2,1.01-.32,2.16-.49,3.46-.49,1.49,0,2.88.19,4.18.57,1.29.38,2.41,1,3.34,1.86.94.86,1.68,1.99,2.23,3.4.55,1.41.83,3.15.83,5.21v15.96c0,2.1-1.05,3.15-3.15,3.15h-3.6c-2.1,0-3.15-1.05-3.15-3.15v-14.13c0-1.37-.27-2.36-.8-2.98-.53-.61-1.35-.92-2.46-.92s-2.06.21-2.86.63c-.8.42-1.47.99-2,1.72-.54.72-.93,1.57-1.17,2.52-.25.96-.37,1.95-.37,2.98v10.18c0,2.1-1.05,3.15-3.15,3.15h-3.6c-2.1,0-3.15-1.05-3.15-3.15v-23.17Z"/><path class="cls-2" d="M417.46,193.25c0-2.1,1.05-3.15,3.15-3.15h3.2c2.06,0,3.09,1.05,3.09,3.15v.51c0,.08,0,.15-.03.23-.02.08-.03.15-.03.23v.29h.11c.34-.57.78-1.16,1.32-1.77s1.18-1.15,1.95-1.63c.76-.48,1.65-.88,2.66-1.2,1.01-.32,2.16-.49,3.46-.49,1.49,0,2.88.19,4.18.57,1.29.38,2.41,1,3.34,1.86.94.86,1.68,1.99,2.23,3.4.55,1.41.83,3.15.83,5.21v15.96c0,2.1-1.05,3.15-3.15,3.15h-3.6c-2.1,0-3.15-1.05-3.15-3.15v-14.13c0-1.37-.27-2.36-.8-2.98-.53-.61-1.35-.92-2.46-.92s-2.06.21-2.86.63c-.8.42-1.47.99-2,1.72-.54.72-.93,1.57-1.17,2.52-.25.96-.37,1.95-.37,2.98v10.18c0,2.1-1.05,3.15-3.15,3.15h-3.6c-2.1,0-3.15-1.05-3.15-3.15v-23.17Z"/><path class="cls-2" d="M450.7,204.92c0-2.33.44-4.44,1.31-6.35.88-1.91,2.07-3.54,3.58-4.89,1.51-1.35,3.27-2.4,5.29-3.15,2.02-.74,4.18-1.12,6.46-1.12s4.51.37,6.55,1.12c2.04.74,3.81,1.79,5.32,3.15,1.51,1.35,2.7,2.98,3.58,4.89.88,1.91,1.32,4.02,1.32,6.35s-.44,4.38-1.32,6.26c-.88,1.89-2.07,3.51-3.58,4.86-1.51,1.35-3.27,2.39-5.29,3.12-2.02.72-4.2,1.09-6.52,1.09s-4.5-.36-6.52-1.09c-2.02-.72-3.79-1.76-5.29-3.12-1.51-1.35-2.7-2.97-3.58-4.86-.88-1.89-1.31-3.97-1.31-6.26ZM460.71,204.92c0,1.1.18,2.08.54,2.95.36.87.85,1.61,1.46,2.21.61.61,1.32,1.07,2.12,1.39s1.66.48,2.57.48,1.77-.16,2.58-.48c.8-.32,1.51-.78,2.12-1.39.61-.6,1.1-1.34,1.46-2.21.36-.87.54-1.85.54-2.95s-.18-2.09-.54-2.98c-.36-.89-.85-1.65-1.46-2.27-.61-.62-1.32-1.11-2.12-1.45-.8-.34-1.66-.51-2.58-.51s-1.77.17-2.57.51-1.51.82-2.12,1.45c-.61.62-1.1,1.38-1.46,2.27-.36.89-.54,1.88-.54,2.98Z"/><path class="cls-2" d="M485.71,193.71c-.38-1.1-.34-1.98.11-2.63.46-.65,1.28-.97,2.46-.97h3.83c1.83,0,2.99.88,3.49,2.63l3.83,13.04c.15.5.29,1.03.4,1.6.11.57.23,1.12.34,1.66.11.61.23,1.22.34,1.83h.11c.07-.61.19-1.22.34-1.83.07-.53.18-1.09.31-1.66.13-.57.28-1.11.43-1.6l3.78-13.04c.5-1.75,1.66-2.63,3.49-2.63h3.95c1.14,0,1.95.33,2.43.97.48.65.53,1.53.14,2.63l-7.95,23.29c-.57,1.71-1.75,2.57-3.55,2.57h-6.69c-1.79,0-2.97-.86-3.55-2.57l-8.07-23.29Z"/><path class="cls-2" d="M516.77,211.27c0-1.98.52-3.62,1.57-4.92,1.05-1.3,2.39-2.33,4.03-3.09,1.64-.76,3.43-1.29,5.38-1.6,1.95-.31,3.83-.46,5.66-.46h.86v-.52c0-1.22-.42-2.07-1.26-2.55-.84-.48-1.81-.71-2.92-.71-.95,0-1.89.13-2.8.4-.92.27-1.76.57-2.52.91-1.94.84-3.36.38-4.23-1.37l-.69-1.43c-.42-.88-.54-1.69-.34-2.43s.72-1.34,1.6-1.8c1.1-.54,2.5-1.05,4.18-1.55,1.68-.5,3.58-.74,5.72-.74,4.08,0,7.29,1.06,9.64,3.18,2.35,2.12,3.52,5.06,3.52,8.84v14.99c0,2.1-1.05,3.15-3.15,3.15h-2.75c-2.1,0-3.15-1.07-3.15-3.2v-.63c0-.08.02-.13.06-.17h-.11c-.57.88-1.28,1.66-2.12,2.34-.72.61-1.64,1.15-2.74,1.63-1.11.48-2.38.71-3.83.71s-2.71-.23-3.89-.69c-1.18-.46-2.19-1.09-3.03-1.89-.84-.8-1.5-1.75-1.97-2.86-.48-1.1-.71-2.29-.71-3.55ZM526.55,210.36c0,.69.24,1.28.71,1.77s1.17.74,2.09.74c.72,0,1.39-.16,2-.49.61-.32,1.14-.73,1.6-1.23s.81-1.05,1.06-1.66c.25-.61.37-1.22.37-1.83v-.8h-.92c-.76,0-1.55.06-2.37.17-.82.11-1.56.3-2.23.57-.67.27-1.22.62-1.66,1.06s-.66,1-.66,1.69Z"/><path class="cls-2" d="M551.15,198.34h-.86c-2.06,0-3.09-1.05-3.09-3.15v-1.43c0-2.1,1.05-3.15,3.15-3.15h1.09v-5.32c0-2.1,1.05-3.15,3.15-3.15h3.32c2.1,0,3.15,1.05,3.15,3.15v5.32h3.03c2.1,0,3.15,1.05,3.15,3.15v1.43c0,2.1-1.03,3.15-3.09,3.15h-3.09v8.93c0,1.26.35,2.17,1.06,2.72s1.5.89,2.37,1c1.14.15,1.95.44,2.43.86.48.42.71,1.18.71,2.29v2.58c0,1.18-.34,2-1.03,2.46s-1.7.69-3.03.69c-1.1,0-2.36-.15-3.78-.46-1.41-.3-2.76-.86-4.06-1.66-1.3-.8-2.38-1.9-3.26-3.29-.88-1.39-1.32-3.18-1.32-5.35v-10.76Z"/><path class="cls-2" d="M571.97,193.25c0-2.1,1.05-3.15,3.15-3.15h3.6c2.1,0,3.15,1.05,3.15,3.15v23.17c0,2.1-1.05,3.15-3.15,3.15h-3.6c-2.1,0-3.15-1.05-3.15-3.15v-23.17ZM575.24,186.39c-2.1,0-3.15-1.05-3.15-3.15v-1.43c0-2.1,1.05-3.15,3.15-3.15h3.37c2.1,0,3.15,1.05,3.15,3.15v1.43c0,2.1-1.05,3.15-3.15,3.15h-3.37Z"/><path class="cls-2" d="M586.05,204.92c0-2.33.44-4.44,1.31-6.35.88-1.91,2.07-3.54,3.58-4.89,1.51-1.35,3.27-2.4,5.29-3.15,2.02-.74,4.18-1.12,6.46-1.12s4.51.37,6.55,1.12c2.04.74,3.81,1.79,5.32,3.15,1.51,1.35,2.7,2.98,3.58,4.89.88,1.91,1.32,4.02,1.32,6.35s-.44,4.38-1.32,6.26c-.88,1.89-2.07,3.51-3.58,4.86-1.51,1.35-3.27,2.39-5.29,3.12-2.02.72-4.2,1.09-6.52,1.09s-4.5-.36-6.52-1.09c-2.02-.72-3.79-1.76-5.29-3.12-1.51-1.35-2.7-2.97-3.58-4.86-.88-1.89-1.31-3.97-1.31-6.26ZM596.06,204.92c0,1.1.18,2.08.54,2.95.36.87.85,1.61,1.46,2.21.61.61,1.32,1.07,2.12,1.39s1.66.48,2.57.48,1.77-.16,2.58-.48c.8-.32,1.51-.78,2.12-1.39.61-.6,1.1-1.34,1.46-2.21.36-.87.54-1.85.54-2.95s-.18-2.09-.54-2.98c-.36-.89-.85-1.65-1.46-2.27-.61-.62-1.32-1.11-2.12-1.45-.8-.34-1.66-.51-2.58-.51s-1.77.17-2.57.51-1.51.82-2.12,1.45c-.61.62-1.1,1.38-1.46,2.27-.36.89-.54,1.88-.54,2.98Z"/><path class="cls-2" d="M623.63,193.25c0-2.1,1.05-3.15,3.15-3.15h3.2c2.06,0,3.09,1.05,3.09,3.15v.51c0,.08,0,.15-.03.23-.02.08-.03.15-.03.23v.29h.11c.34-.57.78-1.16,1.32-1.77s1.18-1.15,1.95-1.63c.76-.48,1.65-.88,2.66-1.2,1.01-.32,2.16-.49,3.46-.49,1.49,0,2.88.19,4.18.57,1.29.38,2.41,1,3.34,1.86.94.86,1.68,1.99,2.23,3.4.55,1.41.83,3.15.83,5.21v15.96c0,2.1-1.05,3.15-3.15,3.15h-3.6c-2.1,0-3.15-1.05-3.15-3.15v-14.13c0-1.37-.27-2.36-.8-2.98-.53-.61-1.35-.92-2.46-.92s-2.06.21-2.86.63c-.8.42-1.47.99-2,1.72-.54.72-.93,1.57-1.17,2.52-.25.96-.37,1.95-.37,2.98v10.18c0,2.1-1.05,3.15-3.15,3.15h-3.6c-2.1,0-3.15-1.05-3.15-3.15v-23.17Z"/><path class="cls-2" d="M671.63,207.73c0-1.07.15-2.1.46-3.09.3-.99.74-1.92,1.31-2.77s1.26-1.62,2.06-2.29,1.7-1.21,2.69-1.63v-.11c-.92-.46-1.71-1.09-2.4-1.89-.61-.69-1.16-1.59-1.66-2.72-.5-1.12-.74-2.53-.74-4.21,0-1.98.38-3.67,1.14-5.06.76-1.39,1.77-2.54,3.03-3.43,1.26-.9,2.7-1.55,4.32-1.95,1.62-.4,3.29-.6,5-.6h2.06c2.1,0,3.15,1.05,3.15,3.15v2c0,2.1-1.05,3.15-3.15,3.15h-1.2c-1.53,0-2.61.45-3.26,1.34-.65.9-.97,1.86-.97,2.89s.35,1.95,1.06,2.75c.71.8,1.75,1.2,3.12,1.2h4.98v-1.89c0-2.1,1.05-3.15,3.15-3.15h3.55c2.1,0,3.15.84,3.15,2.52v2.52h1.95c2.1,0,3.15,1.05,3.15,3.15v2.29c0,2.1-1.05,3.15-3.15,3.15h-1.95v3.95c0,1.83-.34,3.56-1.03,5.18-.69,1.62-1.7,3.03-3.03,4.23-1.34,1.2-2.97,2.15-4.89,2.83-1.93.69-4.15,1.03-6.67,1.03-2.33,0-4.43-.33-6.32-.97-1.89-.65-3.49-1.54-4.81-2.66-1.31-1.12-2.33-2.45-3.03-3.98-.71-1.52-1.06-3.16-1.06-4.92ZM681.87,207.1c0,1.1.48,2.06,1.43,2.86.95.8,2.14,1.2,3.55,1.2,1.91,0,3.35-.46,4.32-1.37s1.46-2.04,1.46-3.37v-3.38h-5.61c-.65,0-1.29.07-1.92.2s-1.18.36-1.66.69c-.48.32-.86.74-1.14,1.26-.29.51-.43,1.15-.43,1.92Z"/><path class="cls-2" d="M216.04,253.5h-9.27c-2.1,0-3.15-1.05-3.15-3.15v-2.29c0-2.1,1.05-3.15,3.15-3.15h28.55c2.1,0,3.15,1.05,3.15,3.15v2.29c0,2.1-1.05,3.15-3.15,3.15h-9.27v29.18c0,2.1-1.05,3.15-3.15,3.15h-3.72c-2.1,0-3.15-1.05-3.15-3.15v-29.18Z"/><path class="cls-2" d="M235.26,271.06c0-2.17.35-4.2,1.06-6.06.7-1.87,1.72-3.49,3.03-4.86,1.32-1.37,2.93-2.46,4.84-3.26,1.91-.8,4.04-1.2,6.41-1.2,2.18,0,4.11.36,5.81,1.09,1.69.72,3.13,1.72,4.29,2.98,1.16,1.26,2.04,2.74,2.63,4.46.59,1.71.89,3.57.89,5.55,0,.76-.31,1.5-.92,2.2-.61.71-1.41,1.06-2.4,1.06h-15.5c.38,1.81,1.22,3.13,2.52,3.96,1.3.83,2.74,1.24,4.35,1.24.99,0,1.95-.13,2.86-.4.91-.27,1.75-.59,2.52-.97.95-.42,1.77-.55,2.46-.4.69.15,1.28.69,1.77,1.6l.8,1.5c.46.88.61,1.7.46,2.45-.15.75-.67,1.37-1.55,1.87-1.07.61-2.45,1.21-4.15,1.79-1.7.57-3.69.86-5.98.86-2.63,0-4.96-.44-6.98-1.32-2.02-.88-3.71-2.03-5.06-3.46-1.35-1.43-2.38-3.08-3.09-4.95-.71-1.87-1.06-3.78-1.06-5.72ZM254.42,267.35c0-1.22-.36-2.26-1.09-3.12s-1.72-1.29-2.97-1.29c-1.45,0-2.54.44-3.26,1.32-.72.88-1.22,1.91-1.49,3.09h8.81Z"/><path class="cls-2" d="M266.61,271.06c0-1.98.36-3.9,1.09-5.75.72-1.85,1.78-3.49,3.17-4.92,1.39-1.43,3.11-2.58,5.15-3.43,2.04-.86,4.38-1.29,7.01-1.29,2.25,0,4.16.28,5.72.84,1.56.56,2.82,1.16,3.78,1.81.8.54,1.25,1.18,1.34,1.93.1.75-.12,1.55-.66,2.39l-.97,1.5c-.53.88-1.14,1.36-1.83,1.46s-1.49-.09-2.4-.54c-.57-.3-1.22-.56-1.94-.77-.73-.21-1.53-.31-2.4-.31-1.18,0-2.21.2-3.09.59-.88.4-1.61.93-2.2,1.59-.59.66-1.03,1.41-1.32,2.24-.29.83-.43,1.68-.43,2.56s.15,1.74.46,2.61c.3.87.76,1.64,1.37,2.33.61.68,1.37,1.24,2.29,1.67.92.44,2,.65,3.26.65.99,0,1.95-.17,2.86-.52.92-.34,1.74-.72,2.46-1.14.95-.53,1.78-.72,2.49-.57.7.15,1.31.71,1.8,1.66l.74,1.44c.42.88.57,1.69.46,2.42s-.55,1.36-1.32,1.9c-1.03.69-2.42,1.38-4.18,2.07-1.75.69-3.85,1.04-6.29,1.04-2.63,0-4.97-.42-7.01-1.26s-3.76-1.97-5.15-3.4c-1.39-1.43-2.45-3.08-3.17-4.95-.73-1.87-1.09-3.81-1.09-5.84Z"/><path class="cls-2" d="M298.58,248.07c0-2.1,1.05-3.15,3.15-3.15h3.6c2.1,0,3.15,1.05,3.15,3.15v9.78c0,.38,0,.72-.03,1.03-.02.31-.03.57-.03.8-.04.27-.06.5-.06.68h.11c.84-1.45,2.06-2.59,3.66-3.43,1.6-.84,3.37-1.26,5.32-1.26,1.49,0,2.88.19,4.18.57,1.3.38,2.41,1,3.35,1.86.94.86,1.68,1.99,2.23,3.4.55,1.41.83,3.15.83,5.21v15.96c0,2.1-1.05,3.15-3.15,3.15h-3.6c-2.1,0-3.15-1.05-3.15-3.15v-14.13c0-1.37-.27-2.36-.8-2.98-.53-.61-1.35-.92-2.46-.92-2.14,0-3.74.75-4.81,2.26-1.07,1.51-1.6,3.39-1.6,5.64v10.13c0,2.1-1.05,3.15-3.15,3.15h-3.6c-2.1,0-3.15-1.05-3.15-3.15v-34.61Z"/><path class="cls-2" d="M333.48,259.51c0-2.1,1.05-3.15,3.15-3.15h3.2c2.06,0,3.09,1.05,3.09,3.15v.51c0,.08,0,.15-.03.23-.02.08-.03.15-.03.23v.29h.11c.34-.57.78-1.16,1.32-1.77s1.18-1.15,1.95-1.63c.76-.48,1.65-.88,2.66-1.2,1.01-.32,2.16-.49,3.46-.49,1.49,0,2.88.19,4.18.57,1.29.38,2.41,1,3.34,1.86.94.86,1.68,1.99,2.23,3.4.55,1.41.83,3.15.83,5.21v15.96c0,2.1-1.05,3.15-3.15,3.15h-3.6c-2.1,0-3.15-1.05-3.15-3.15v-14.13c0-1.37-.27-2.36-.8-2.98-.53-.61-1.35-.92-2.46-.92s-2.06.21-2.86.63c-.8.42-1.47.99-2,1.72-.54.72-.93,1.57-1.17,2.52-.25.96-.37,1.95-.37,2.98v10.18c0,2.1-1.05,3.15-3.15,3.15h-3.6c-2.1,0-3.15-1.05-3.15-3.15v-23.17Z"/><path class="cls-2" d="M366.72,271.18c0-2.33.44-4.44,1.31-6.35.88-1.91,2.07-3.54,3.58-4.89,1.51-1.35,3.27-2.4,5.29-3.15,2.02-.74,4.18-1.12,6.46-1.12s4.51.37,6.55,1.12c2.04.74,3.81,1.79,5.32,3.15,1.51,1.35,2.7,2.98,3.58,4.89.88,1.91,1.32,4.02,1.32,6.35s-.44,4.38-1.32,6.26c-.88,1.89-2.07,3.51-3.58,4.86s-3.27,2.39-5.29,3.12c-2.02.72-4.2,1.09-6.52,1.09s-4.5-.36-6.52-1.09c-2.02-.72-3.79-1.76-5.29-3.12-1.51-1.35-2.7-2.97-3.58-4.86-.88-1.89-1.31-3.97-1.31-6.26ZM376.73,271.18c0,1.1.18,2.08.54,2.95.36.87.85,1.61,1.46,2.21.61.61,1.32,1.07,2.12,1.39s1.66.48,2.57.48,1.77-.16,2.58-.48c.8-.32,1.51-.78,2.12-1.39.61-.6,1.1-1.34,1.46-2.21.36-.87.54-1.85.54-2.95s-.18-2.09-.54-2.98c-.36-.89-.85-1.65-1.46-2.27-.61-.62-1.32-1.11-2.12-1.45-.8-.34-1.66-.51-2.58-.51s-1.77.17-2.57.51c-.8.34-1.51.82-2.12,1.45-.61.62-1.1,1.38-1.46,2.27-.36.89-.54,1.88-.54,2.98Z"/><path class="cls-2" d="M404.18,248.07c0-2.1,1.05-3.15,3.15-3.15h3.6c2.1,0,3.15,1.05,3.15,3.15v26.43c0,1.11.16,1.85.49,2.23.32.38.71.61,1.17.69.69.08,1.24.32,1.66.74s.63,1.07.63,1.94v2.8c0,.99-.25,1.77-.74,2.34-.5.57-1.32.86-2.46.86-1.26,0-2.53-.11-3.81-.34-1.28-.23-2.42-.73-3.43-1.52s-1.83-1.91-2.46-3.37c-.63-1.47-.95-3.44-.95-5.92v-26.89Z"/><path class="cls-2" d="M419.97,271.18c0-2.33.44-4.44,1.31-6.35.88-1.91,2.07-3.54,3.58-4.89,1.51-1.35,3.27-2.4,5.29-3.15,2.02-.74,4.18-1.12,6.46-1.12s4.51.37,6.55,1.12c2.04.74,3.81,1.79,5.32,3.15,1.51,1.35,2.7,2.98,3.58,4.89.88,1.91,1.32,4.02,1.32,6.35s-.44,4.38-1.32,6.26c-.88,1.89-2.07,3.51-3.58,4.86s-3.27,2.39-5.29,3.12c-2.02.72-4.2,1.09-6.52,1.09s-4.5-.36-6.52-1.09c-2.02-.72-3.79-1.76-5.29-3.12s-2.7-2.97-3.58-4.86c-.88-1.89-1.31-3.97-1.31-6.26ZM429.99,271.18c0,1.1.18,2.08.54,2.95.36.87.85,1.61,1.46,2.21.61.61,1.32,1.07,2.12,1.39s1.66.48,2.57.48,1.77-.16,2.58-.48c.8-.32,1.51-.78,2.12-1.39.61-.6,1.1-1.34,1.46-2.21.36-.87.54-1.85.54-2.95s-.18-2.09-.54-2.98c-.36-.89-.85-1.65-1.46-2.27-.61-.62-1.32-1.11-2.12-1.45-.8-.34-1.66-.51-2.58-.51s-1.77.17-2.57.51-1.51.82-2.12,1.45c-.61.62-1.1,1.38-1.46,2.27-.36.89-.54,1.88-.54,2.98Z"/><path class="cls-2" d="M460.59,290.58c.38-1,.88-1.64,1.49-1.92s1.45-.26,2.52.08c.72.23,1.5.42,2.32.57.82.15,1.8.23,2.95.23.92,0,1.79-.09,2.63-.28.84-.19,1.57-.49,2.2-.9.63-.42,1.13-.98,1.52-1.7s.57-1.62.57-2.72v-2.17c0-.15.02-.29.06-.4h-.11c-.8,1.18-1.76,2.08-2.89,2.69-1.12.61-2.56.92-4.32.92-2.25,0-4.23-.42-5.92-1.26-1.7-.84-3.1-1.94-4.21-3.32-1.11-1.37-1.94-2.95-2.49-4.72-.55-1.77-.83-3.61-.83-5.52s.27-3.67.8-5.41c.53-1.73,1.36-3.28,2.49-4.63,1.12-1.35,2.54-2.43,4.23-3.23,1.69-.8,3.69-1.2,5.98-1.2,1.6,0,2.91.2,3.92.6,1.01.4,1.84.85,2.49,1.34.69.57,1.24,1.2,1.66,1.89h.11s-.06-.1-.06-.17v-.52c0-.69.27-1.27.8-1.74.53-.48,1.32-.72,2.34-.72h2.69c2.1,0,3.15,1.05,3.15,3.15v23.63c0,2.71-.5,4.98-1.49,6.84-.99,1.85-2.27,3.36-3.83,4.55-1.56,1.18-3.31,2.03-5.23,2.55-1.93.52-3.82.77-5.69.77-1.72,0-3.39-.14-5.01-.43-1.62-.29-2.87-.62-3.75-1.01-1.87-.77-2.44-2.13-1.72-4.09l.63-1.73ZM471.69,276.67c.65,0,1.29-.09,1.92-.28.63-.19,1.2-.52,1.72-.99.52-.47.93-1.12,1.23-1.96.31-.83.46-1.89.46-3.17s-.16-2.33-.49-3.15c-.33-.81-.74-1.45-1.26-1.93s-1.12-.79-1.83-.97c-.71-.17-1.42-.25-2.15-.25-1.75,0-3.07.55-3.95,1.64-.88,1.09-1.31,2.49-1.31,4.19,0,.91.11,1.78.34,2.61.23.83.57,1.56,1.03,2.18.46.62,1.04,1.12,1.74,1.5.71.38,1.56.57,2.55.57Z"/><path class="cls-2" d="M492.83,289.66c.55-.23,1.13-.29,1.74-.17.23.08.49.14.77.2s.6.08.95.08c.88,0,1.69-.31,2.43-.92.74-.61,1.29-1.35,1.63-2.23l.57-1.37-10.93-25.23c-.5-1.1-.53-1.99-.09-2.66s1.27-1,2.49-1h4.46c1.83,0,3.03.86,3.61,2.58l3.49,10.98c.11.42.24.9.37,1.43.13.54.26,1.03.37,1.49.15.57.27,1.12.34,1.66h.11c.11-.53.23-1.07.34-1.6.07-.46.17-.94.29-1.43s.23-.95.34-1.37l2.97-11.04c.5-1.79,1.68-2.69,3.55-2.69h4.18c1.14,0,1.95.33,2.43.97.48.65.51,1.53.09,2.63l-10.76,29c-.61,1.64-1.37,3.02-2.29,4.15-.91,1.12-1.92,2.04-3,2.74-1.09.71-2.23,1.21-3.43,1.52-1.2.3-2.39.46-3.57.46-.76,0-1.5-.07-2.2-.23-.71-.15-1.35-.33-1.92-.52-.95-.31-1.55-.84-1.8-1.6-.25-.76-.16-1.6.26-2.52l.74-1.66c.42-.88.9-1.43,1.46-1.66Z"/><path class="cls-2" d="M538.33,248.07c0-2.1,1.05-3.15,3.15-3.15h3.72c2.1,0,3.15,1.05,3.15,3.15v29.18h13.56c2.1,0,3.15,1.05,3.15,3.15v2.29c0,2.1-1.05,3.15-3.15,3.15h-20.42c-2.1,0-3.15-1.05-3.15-3.15v-34.61Z"/><path class="cls-2" d="M566.14,277.53c0-1.98.52-3.62,1.57-4.92,1.05-1.3,2.39-2.33,4.03-3.09,1.64-.76,3.43-1.29,5.38-1.6,1.95-.31,3.83-.46,5.66-.46h.86v-.52c0-1.22-.42-2.07-1.26-2.55-.84-.48-1.81-.71-2.92-.71-.95,0-1.89.13-2.8.4-.92.27-1.76.57-2.52.91-1.94.84-3.36.38-4.23-1.37l-.69-1.43c-.42-.88-.54-1.69-.34-2.43s.72-1.34,1.6-1.8c1.1-.54,2.5-1.05,4.18-1.55,1.68-.5,3.58-.74,5.72-.74,4.08,0,7.29,1.06,9.64,3.18,2.35,2.12,3.52,5.06,3.52,8.84v14.99c0,2.1-1.05,3.15-3.15,3.15h-2.75c-2.1,0-3.15-1.07-3.15-3.2v-.63c0-.08.02-.13.06-.17h-.11c-.57.88-1.28,1.66-2.12,2.34-.72.61-1.64,1.15-2.74,1.63-1.11.48-2.38.71-3.83.71s-2.71-.23-3.89-.69c-1.18-.46-2.19-1.09-3.03-1.89-.84-.8-1.5-1.75-1.97-2.86-.48-1.1-.71-2.29-.71-3.55ZM575.92,276.61c0,.69.24,1.28.71,1.77s1.17.74,2.09.74c.72,0,1.39-.16,2-.49.61-.32,1.14-.73,1.6-1.23s.81-1.05,1.06-1.66c.25-.61.37-1.22.37-1.83v-.8h-.92c-.76,0-1.55.06-2.37.17-.82.11-1.56.3-2.23.57-.67.27-1.22.62-1.66,1.06s-.66,1-.66,1.69Z"/><path class="cls-2" d="M598.97,248.07c0-2.1,1.05-3.15,3.15-3.15h3.6c2.1,0,3.15,1.05,3.15,3.15v8.81c0,.38,0,.72-.03,1.03-.02.31-.03.57-.03.8-.04.27-.06.5-.06.69h.11c.54-.69,1.2-1.3,2-1.83.65-.46,1.49-.89,2.52-1.29,1.03-.4,2.23-.6,3.61-.6,1.94,0,3.72.37,5.32,1.12,1.6.74,2.98,1.79,4.12,3.15,1.14,1.35,2.04,2.97,2.69,4.83.65,1.87.97,3.93.97,6.18,0,2.37-.35,4.51-1.06,6.44-.71,1.93-1.67,3.57-2.89,4.92-1.22,1.35-2.65,2.39-4.29,3.12-1.64.72-3.41,1.09-5.32,1.09-1.6,0-2.93-.21-3.98-.63-1.05-.42-1.9-.9-2.55-1.43-.76-.61-1.39-1.3-1.89-2.06h-.11v.17c0,.08,0,.14.03.2.02.06.03.12.03.2v.23c0,.76-.27,1.39-.8,1.89-.54.5-1.32.74-2.35.74h-2.8c-2.1,0-3.15-1.05-3.15-3.15v-34.61ZM608.58,270.98c0,1,.12,1.94.37,2.81.25.88.61,1.66,1.09,2.33.48.67,1.07,1.21,1.77,1.61.71.4,1.52.6,2.43.6,1.64,0,3.03-.61,4.18-1.84,1.14-1.22,1.72-2.99,1.72-5.28s-.53-3.93-1.57-5.26c-1.05-1.32-2.43-1.98-4.15-1.98-.76,0-1.5.14-2.2.43-.71.29-1.33.72-1.86,1.29-.54.57-.96,1.3-1.29,2.18-.33.88-.49,1.91-.49,3.1Z"/><path class="cls-1" d="M214.4,340.2c-2.78,0-5.57-.6-8.08-1.86l-.47-7.62h1.69c.37,2.29.66,3.94,1.82,5.5s2.98,2.32,4.84,2.32c3.11,0,5.1-2.09,5.1-4.41,0-2.05-1.26-3.28-3.41-4.37l-4.94-2.52c-1.79-.93-4.64-2.42-4.64-6.16,0-3.51,2.75-6.56,7.95-6.56,2.55,0,5.03.6,7.32,1.69l.26,6.89h-1.62c-.43-4.8-3.25-6.92-6.16-6.92-2.42,0-4.34,1.43-4.34,3.68,0,1.56.69,2.85,3.28,4.11l4.7,2.32c1.86.9,5.17,2.52,5.17,6.69,0,4.87-4.41,7.22-8.48,7.22Z"/><path class="cls-1" d="M239.95,339.9c-.53-.83-.56-1.03-.8-3.51-2.82,2.62-4.54,3.51-6.29,3.51-2.12,0-3.58-1.33-4.24-2.62-.56-1.13-.6-2.72-.6-4.14v-7.52c0-1.06-.07-2.38-1.82-2.38h-.99v-1.49l5.17-.3h.8v11.73c0,1.26,0,4.54,2.95,4.54,1.65,0,3.25-1.22,5.03-3.25v-8.71c0-1.16-.03-2.52-1.85-2.52h-1.56v-1.49l5.76-.3h.8v14.08c0,1.12,0,2.58,1.59,2.58h1.36v1.49l-5.3.3Z"/><path class="cls-1" d="M266.38,314.29c3.21,0,5,1.49,5,3.08,0,.93-.76,1.63-1.69,1.63s-1.62-.6-1.99-1.76c-.33-1.03-.96-1.56-1.86-1.56-2.15,0-2.35,2.39-2.35,4.18v2.38h3.64v1.79h-3.64v12.22c0,1.72.4,1.86,1.42,1.86h2.22v1.49h-9.51v-1.49h1.32c1.06,0,1.42-.17,1.42-1.86v-12.22h-8.15v12.22c0,1.72.36,1.86,1.42,1.86h2.19v1.49h-9.68v-1.49h1.53c1.06,0,1.42-.17,1.42-1.86v-12.22h-2.95v-1.79h2.95v-1.16c0-4.64,2.65-6.79,7.26-6.79,2.32,0,4.11.56,5.4,1.72,1.06-1.16,2.58-1.72,4.6-1.72ZM260.38,319.19c-.53-.23-.96-.69-1.26-1.46-.56-1.36-1.72-2.06-3.48-2.06-1.03,0-1.86.3-2.49.93s-.93,1.99-.93,4.11v1.52h8.15v-3.05Z"/><path class="cls-1" d="M277.88,339.9c-3.84,0-8.08-2.75-8.08-9.21s4.21-9.24,8.08-9.24,8.12,2.81,8.12,9.24-4.24,9.21-8.12,9.21ZM277.88,323c-4.37,0-4.61,5.34-4.61,7.89,0,2.38.37,7.45,4.61,7.45s4.64-5.37,4.64-7.85-.4-7.49-4.64-7.49Z"/><path class="cls-1" d="M287.88,339.6v-1.49h1.99c1.26,0,1.42-.5,1.42-1.86v-17.76c0-1.06-.03-2.29-1.85-2.29h-1.56v-1.49l5.77-.43h.79v21.96c0,1.36.17,1.86,1.43,1.86h1.95v1.49h-9.94Z"/><path class="cls-1" d="M310.47,339.6v-1.49c1,0,1.23,0,1.49-.07.3-.1.4-.33.4-.56,0-.33-.2-.63-.36-.89l-4.24-6.3-2.65,2.65v3.31c0,1.36.13,1.86,1.42,1.86h1.23v1.49h-8.52v-1.49h1.29c1.29,0,1.42-.53,1.42-1.86v-17.76c0-.86,0-2.29-1.85-2.29h-1.13v-1.49l5.33-.43h.8v16.56l5.37-5.37c.73-.73,1.03-1.13,1.03-1.49,0-.76-.96-.76-1.76-.76h-.83v-1.49h8.25v1.49h-.56c-1.46,0-1.99.33-3.81,2.12l-2.85,2.78,5.5,8.21c.8,1.19,1.19,1.79,2.88,1.76v1.49h-7.85Z"/><path class="cls-1" d="M352.15,316.61c-3.41.03-3.41,2.45-3.41,3.81v11.73c0,1.26,0,3.44-1.69,5.37-2.02,2.29-5.17,2.69-7.16,2.69-2.98,0-6.29-.93-7.75-3.48-.86-1.53-.86-3.21-.86-4.27v-13.95c0-1.39-.13-1.89-1.39-1.89h-2.02v-1.49h10.77v1.49h-2.32c-1.26,0-1.43.46-1.43,1.89v13.38c0,2.06,0,6.49,5.67,6.49,3.34,0,6.36-1.89,6.36-5.83v-12.12c0-2.58-.73-3.81-3.78-3.81v-1.49h9.01v1.49Z"/><path class="cls-1" d="M364.93,339.6v-1.49h1.26c1.26,0,1.42-.5,1.42-1.86v-8.02c0-1.06-.07-1.96-.4-2.65-.56-1.16-1.62-1.76-2.62-1.76-1.82,0-3.45,1.33-4.84,2.98l-.17.2v9.24c0,1.36.13,1.86,1.46,1.86h1.03v1.49h-8.32v-1.49h1.29c1.29,0,1.39-.5,1.39-1.86v-10.57c0-1.72-.1-2.45-1.92-2.45h-1.03v-1.49l5.23-.3c.63,1.19.9,2.48.86,3.71,2.59-2.49,4.28-3.71,6.36-3.71,1.86,0,3.55,1.09,4.14,2.68.63,1.66.66,3.02.66,3.98v8.15c0,1.36.13,1.86,1.39,1.86h1.32v1.49h-8.55Z"/><path class="cls-1" d="M374.97,339.6v-1.49h1.89c1.26,0,1.43-.5,1.43-1.86v-10.63c0-1.22-.23-2.38-1.86-2.38h-1.46v-1.49l5.67-.3h.79v14.81c0,1.36.13,1.86,1.39,1.86h1.85v1.49h-9.71ZM379.31,318.43c-1.12,0-2.05-.89-2.05-2.05,0-1.49,1.43-2.09,2.12-2.09.96,0,2.02.8,2.02,2.09,0,1.16-.96,2.05-2.09,2.05Z"/><path class="cls-1" d="M402.97,323.24c-1.16,0-2.09.23-2.78,2.22l-5.04,14.15h-2.35l-5.46-14.51c-.47-1.26-.76-1.85-2.72-1.85v-1.49h8.18v1.49h-.83c-.56,0-1.65,0-1.65.93,0,.33.23.96.4,1.36l4.01,10.57,3.78-10.54c.06-.2.23-.73.23-1.12,0-1.19-1.49-1.19-2.42-1.19v-1.49h6.66v1.49Z"/><path class="cls-1" d="M418.9,334.86c-1.56,3.08-3.94,5.04-7.42,5.04-4.04,0-7.65-3.12-7.65-9.11,0-6.36,3.58-9.34,7.89-9.34,4.74,0,7.19,4.21,7.19,8.84v.73h-11.69c0,1.66,0,7.09,4.67,7.09,2.98,0,4.64-2.42,5.24-3.25h1.79ZM415.36,329.53c.03-.26.03-.53.03-.76.07-4.54-2.12-5.77-3.87-5.77-3.94,0-4.21,5.2-4.28,6.53h8.12Z"/><path class="cls-1" d="M433.71,326.75c-1.03,0-1.65-.8-1.65-1.56,0-.1.1-.66.1-.79,0-.63-.53-.83-.76-.83-1.29,0-4.11,3.28-4.54,3.81v8.88c0,1.36.13,1.86,1.46,1.86h2.39v1.49h-9.84v-1.49h1.43c1.26,0,1.42-.5,1.42-1.86v-10.73c0-.99-.03-2.28-1.76-2.28h-1.09v-1.49l4.8-.3c.83,1.19.96,1.85,1.19,4.07,2.09-2.32,3.78-4.07,6.03-4.07,1.59,0,2.88,1.36,2.88,3.01,0,1.43-1,2.29-2.06,2.29Z"/><path class="cls-1" d="M444.21,339.9c-2.22,0-4.44-.37-6.39-1.36v-4.97h1.29c.43,3.88,3.28,4.77,5.37,4.77,3.01,0,3.81-1.79,3.81-2.95,0-1.49-1.26-2.22-3.31-2.81l-1.72-.5c-2.95-.86-5.27-2.19-5.27-5.27,0-2.85,2.12-5.37,6.03-5.37,1.89,0,3.78.5,5.44,1.42l.23,4.54h-1.33c-.26-1.13-.93-4.41-4.57-4.41-2.02,0-3.34,1.23-3.34,2.75,0,1.82,1.62,2.59,4.01,3.22l1.12.3c3.61.96,5.24,2.48,5.24,5.2,0,3.11-2.29,5.43-6.59,5.43Z"/><path class="cls-1" d="M452.89,339.6v-1.49h1.89c1.26,0,1.43-.5,1.43-1.86v-10.63c0-1.22-.23-2.38-1.86-2.38h-1.46v-1.49l5.66-.3h.79v14.81c0,1.36.13,1.86,1.39,1.86h1.85v1.49h-9.71ZM457.23,318.43c-1.12,0-2.05-.89-2.05-2.05,0-1.49,1.42-2.09,2.12-2.09.96,0,2.02.8,2.02,2.09,0,1.16-.96,2.05-2.09,2.05Z"/><path class="cls-1" d="M474.98,338.11c-2.19,1.62-3.81,1.79-4.54,1.79s-3.68-.1-3.68-4.08v-11.79h-3.05v-1.26c4.17-.69,4.57-4.07,4.7-7.02h1.49v6.49h4.64v1.79h-4.64v11.36c0,.93,0,2.55,1.49,2.55,1.06,0,2.02-.56,3.58-1.72v1.89Z"/><path class="cls-1" d="M494.6,323.24c-1.92.03-2.35.99-2.95,2.55l-5.8,14.94c-1.62,4.17-3.84,4.57-5.23,4.57-2.35,0-3.38-1.43-3.38-2.55,0-.93.6-1.86,1.79-1.86s1.75.9,1.75,1.49c0,.1-.06.5-.06.6,0,.5.33.76.66.76.63,0,1.86-.66,2.82-2.95l.73-1.72-5.86-13.91c-.79-1.89-1.46-1.92-2.75-1.92v-1.49h8.12v1.49h-1c-.56,0-1.39.06-1.39,1.03,0,.27.17.73.2.83l4.21,9.97,3.38-8.74c.16-.4.46-1.36.46-1.76,0-1.32-1.56-1.32-2.48-1.32v-1.49h6.79v1.49Z"/><path class="cls-1" d="M524.48,339.6h-20.11v-1.49h1.99c1.26,0,1.42-.5,1.42-1.86v-17.76c0-1.39-.16-1.89-1.42-1.89h-1.99v-1.49h11.63v1.49h-3.18c-1.26,0-1.43.46-1.43,1.89v17.82c0,1.43.4,1.79,1.59,1.79h4.18c3.71,0,5.33-2.29,6.43-7.75h1.53l-.63,9.24Z"/><path class="cls-1" d="M541.74,339.9c-2.22,0-3.18-2.22-3.54-3.08-.73.76-3.02,3.08-6.13,3.08-2.85,0-5.04-1.63-5.04-4.37,0-4.24,4.21-5.53,10.9-6.66v-2.09c0-1.42,0-3.78-3.28-3.78-2.75,0-2.78,1.13-2.81,2.25-.07,2.12-1.33,2.45-2.12,2.45-1.29,0-1.82-1.03-1.82-1.79,0-1.82,2.16-4.47,7.06-4.47,1.09,0,6.13,0,6.13,4.54v8.28c0,1.95,0,3.71,1.39,3.71.56,0,.99-.23,1.46-.47v1.72c-.66.36-1.36.66-2.19.66ZM537.93,330.42c-5.9.9-7.49,2.16-7.49,4.74,0,1.46.7,2.98,2.59,2.98,1.65,0,3.38-1.46,4.9-2.91v-4.81Z"/><path class="cls-1" d="M569.96,323.24c-1.39,0-2.16.83-2.55,2.15l-4.28,14.21h-2.09l-4.08-12.06h-.06l-3.58,12.06h-2.25l-4.77-14.64c-.43-1.36-.9-1.72-1.92-1.72h-.47v-1.49h7.42v1.49h-1.09c-.3,0-1.19,0-1.19.76,0,.13.03.43.13.69l3.64,11.2h.07l3.18-10.93c0-.4-.37-1.72-1.92-1.72h-.83v-1.49h7.72v1.49h-.73c-.47,0-1.43,0-1.43.86,0,.03.07.56.17.86l3.64,10.93h.07l2.91-10c.23-.83.27-1.09.27-1.29,0-1.29-1.29-1.32-2.05-1.36v-1.49h6.06v1.49Z"/><path class="cls-1" d="M589.31,340.2c-2.78,0-5.57-.6-8.08-1.86l-.47-7.62h1.69c.37,2.29.66,3.94,1.82,5.5,1.16,1.56,2.98,2.32,4.84,2.32,3.11,0,5.1-2.09,5.1-4.41,0-2.05-1.26-3.28-3.41-4.37l-4.94-2.52c-1.79-.93-4.64-2.42-4.64-6.16,0-3.51,2.75-6.56,7.95-6.56,2.55,0,5.03.6,7.32,1.69l.26,6.89h-1.62c-.43-4.8-3.25-6.92-6.16-6.92-2.42,0-4.34,1.43-4.34,3.68,0,1.56.69,2.85,3.28,4.11l4.7,2.32c1.86.9,5.17,2.52,5.17,6.69,0,4.87-4.41,7.22-8.48,7.22Z"/><path class="cls-1" d="M615.51,334.33c-.47,1.29-2.02,5.57-7.29,5.57s-7.59-4.14-7.59-8.98c0-7.75,5.37-9.47,8.38-9.47,3.48,0,5.96,2.22,5.96,4.5,0,1.46-.9,2.25-1.99,2.25-1.16,0-1.95-.83-1.95-1.76,0-.23.3-1.33.3-1.56,0-.73-.53-1.89-2.48-1.89-4.41,0-4.74,5.57-4.74,7.59,0,1.76.2,3.58.9,5.1.89,1.96,2.48,2.42,3.71,2.42,1.79,0,3.78-1.13,5.1-3.78h1.69Z"/><path class="cls-1" d="M628.03,339.6v-1.49h1.22c1.26,0,1.43-.5,1.43-1.86v-7.59c0-1.49.03-4.84-3.02-4.84-1.62,0-3.01.93-4.9,3.18v9.24c0,1.36.13,1.86,1.39,1.86h1.19v1.49h-8.51v-1.49h1.36c1.26,0,1.42-.5,1.42-1.86v-17.76c0-.83-.03-2.29-1.85-2.29h-1.26v-1.49l5.47-.43h.79v10.74c1.52-1.66,3.94-3.58,6.29-3.58,1.92,0,3.25,1.19,3.91,2.25.9,1.42.86,3.51.86,4.41v8.15c0,1.36.13,1.86,1.43,1.86h1.36v1.49h-8.58Z"/><path class="cls-1" d="M646.59,339.9c-3.84,0-8.08-2.75-8.08-9.21s4.21-9.24,8.08-9.24,8.12,2.81,8.12,9.24-4.24,9.21-8.12,9.21ZM646.59,323c-4.37,0-4.61,5.34-4.61,7.89,0,2.38.37,7.45,4.61,7.45s4.64-5.37,4.64-7.85-.4-7.49-4.64-7.49Z"/><path class="cls-1" d="M665.24,339.9c-3.84,0-8.08-2.75-8.08-9.21s4.21-9.24,8.08-9.24,8.12,2.81,8.12,9.24-4.24,9.21-8.12,9.21ZM665.24,323c-4.37,0-4.61,5.34-4.61,7.89,0,2.38.37,7.45,4.61,7.45s4.64-5.37,4.64-7.85-.4-7.49-4.64-7.49Z"/><path class="cls-1" d="M675.24,339.6v-1.49h1.99c1.26,0,1.42-.5,1.42-1.86v-17.76c0-1.06-.03-2.29-1.85-2.29h-1.56v-1.49l5.77-.43h.79v21.96c0,1.36.17,1.86,1.43,1.86h1.95v1.49h-9.94Z"/></g></g></svg>