<?xml version="1.0" encoding="UTF-8"?><svg id="Stacked" xmlns="http://www.w3.org/2000/svg" viewBox="0 0 792 414.95"><defs><style>.cls-1{fill:#fdb714;}.cls-1,.cls-2{stroke-width:0px;}.cls-2{fill:#172a47;}</style></defs><path class="cls-2" d="M232.84,76.16c0-5.91,2.95-8.87,8.87-8.87h10.48c5.91,0,8.87,2.96,8.87,8.87v82.25h38.22c5.91,0,8.87,2.96,8.87,8.87v6.45c0,5.91-2.96,8.87-8.87,8.87h-57.57c-5.91,0-8.87-2.95-8.87-8.87v-97.57Z"/><path class="cls-2" d="M319.76,76.16c0-5.91,2.95-8.87,8.87-8.87h10.48c5.91,0,8.87,2.96,8.87,8.87v97.57c0,5.91-2.96,8.87-8.87,8.87h-10.48c-5.91,0-8.87-2.95-8.87-8.87v-97.57Z"/><path class="cls-2" d="M395.06,91.48h-26.12c-5.91,0-8.87-2.96-8.87-8.87v-6.45c0-5.91,2.95-8.87,8.87-8.87h80.47c5.91,0,8.87,2.96,8.87,8.87v6.45c0,5.91-2.96,8.87-8.87,8.87h-26.12v82.25c0,5.91-2.96,8.87-8.87,8.87h-10.48c-5.91,0-8.87-2.95-8.87-8.87v-82.25Z"/><path class="cls-1" d="M92.13,69.45c0-1.85,2.05-2.97,3.6-1.96l5.88,3.79c1.54.99,2.46,2.69,2.46,4.52v40.8c0,1.2-1.33,1.93-2.34,1.28l-5.04-3.25c-2.85-1.83-4.57-4.99-4.57-8.37v-36.81Z"/><path class="cls-1" d="M97.68,129.47l25.92,16.69c2.72,1.76,4.37,4.77,4.37,8.02v38.12c0,4.45-3.6,8.05-8.05,8.05h-19.74c-4.45,0-8.05-3.6-8.05-8.05v-59.8c0-2.85,3.16-4.57,5.55-3.03Z"/><path class="cls-1" d="M44.34,65.13c0-3.3,1.68-6.38,4.46-8.17l26.64-17.16c2.05-1.32,4.74.15,4.74,2.59v37.34c0,2.87-1.46,5.53-3.86,7.09l-13.77,8.87c-3.87,2.49-6.21,6.78-6.21,11.39v87.28c0,3.31-2.69,6-6,6h0c-3.31,0-6-2.69-6-6V65.13Z"/><path class="cls-2" d="M177.81,200.35h-8.02c-3.3,0-5.97-2.67-5.97-5.97v-29.31c0-4.5-2.28-8.68-6.06-11.12l-12.26-7.89c-3.47-2.24-5.57-6.08-5.57-10.22V60.19c0-4.29-2.18-8.28-5.78-10.6l-43.42-27.97c-2.78-1.79-6.34-1.79-9.12,0l-43.11,27.77c-3.8,2.45-6.09,6.65-6.09,11.17v133.81c0,3.3-2.67,5.97-5.97,5.97h-8.02c-3.3,0-5.98,2.68-5.98,5.98h0c0,13.69,7.31,25.71,18.23,32.36,1.06.64,1.75,1.74,1.86,2.98,1.14,12.51,8.39,23.28,18.73,29.3,1.8,1.05,3.06,2.83,3.38,4.89l16.17,103.93c1.33,8.57,8.72,14.9,17.39,14.9h19.85c8.68,0,16.06-6.32,17.39-14.9l16.17-103.93c.32-2.06,1.57-3.84,3.38-4.89,10.34-6.01,17.59-16.79,18.73-29.3.11-1.23.79-2.33,1.85-2.97,10.94-6.65,18.25-18.69,18.24-32.41,0-3.28-2.69-5.93-5.98-5.93ZM139.92,162.5c0-2.51,2.78-4.03,4.89-2.67l3.42,2.2c2.27,1.46,3.63,3.97,3.63,6.67v25.68c0,3.28-2.69,5.97-5.97,5.97h-.03c-3.28,0-5.95-2.66-5.95-5.95v-31.9ZM68.29,194.43v-81.55c0-4.16,2.12-8.04,5.62-10.3l2.47-1.59c1.64-1.06,3.81.12,3.81,2.08v91.33c0,3.27-2.68,5.95-5.95,5.95h-.03c-3.27,0-5.92-2.65-5.92-5.92ZM92.13,40.76c0-1.73,1.92-2.78,3.37-1.84l29.34,18.9c1.95,1.26,3.13,3.41,3.13,5.73v68.6c0,1.13-1.25,1.82-2.21,1.2l-4.96-3.19c-2.98-1.92-4.78-5.22-4.78-8.77v-47.89c0-4.46-2.26-8.61-6.01-11.02l-14.83-9.55c-1.9-1.22-3.05-3.33-3.05-5.59v-6.57ZM92.13,69.45c0-1.85,2.05-2.97,3.6-1.96l5.88,3.79c1.54.99,2.46,2.69,2.46,4.52v40.8c0,1.2-1.33,1.93-2.34,1.28l-5.04-3.25c-2.85-1.83-4.57-4.99-4.57-8.37v-36.81ZM92.13,132.5c0-2.85,3.16-4.57,5.55-3.03l25.92,16.69c2.72,1.76,4.37,4.77,4.37,8.02v38.12c0,4.44-3.59,8.03-8.02,8.05h-19.79c-4.43-.02-8.02-3.61-8.02-8.05v-59.8ZM44.34,194.38V65.13c0-3.3,1.68-6.38,4.46-8.17l26.64-17.16c2.05-1.32,4.74.15,4.74,2.59v37.34c0,2.87-1.46,5.53-3.86,7.09l-13.77,8.87c-3.87,2.49-6.21,6.78-6.21,11.39v87.28c0,3.3-2.7,6-6,6h-.03c-3.3,0-5.97-2.67-5.97-5.97ZM128.31,283.47l-14.36,92.3c-.58,3.73-3.61,6.69-7.38,6.92-4.62.29-8.46-3.37-8.46-7.94v-80.5c0-10.05,8.15-18.2,18.2-18.2,0,0,2.64-.01,5.57-.04,3.98-.03,7.04,3.51,6.43,7.45ZM149.3,249.5c-4.2,8.64-13.07,14.61-23.3,14.61h-55.79c-10.24,0-19.1-5.97-23.3-14.61-1.19-2.46.64-5.32,3.38-5.32h95.64s0,0,0,0c2.73,0,4.57,2.86,3.38,5.32ZM168.84,218.39c-4.35,8.22-12.99,13.84-22.92,13.84H50.28c-9.93,0-18.57-5.62-22.92-13.84-1.46-2.76.58-6.08,3.71-6.08h134.06c3.12,0,5.17,3.32,3.71,6.08Z"/><path class="cls-2" d="M237.11,217.41c0-2.27,1.14-3.41,3.41-3.41h4.03c2.27,0,3.41,1.14,3.41,3.41v31.63h14.7c2.27,0,3.41,1.14,3.41,3.41v2.48c0,2.27-1.14,3.41-3.41,3.41h-22.14c-2.27,0-3.41-1.14-3.41-3.41v-37.53Z"/><path class="cls-2" d="M266.88,242.34c0-2.36.38-4.55,1.15-6.58.76-2.02,1.86-3.78,3.29-5.27,1.43-1.49,3.17-2.67,5.24-3.53,2.07-.87,4.38-1.3,6.95-1.3,2.36,0,4.46.39,6.3,1.18,1.84.79,3.39,1.86,4.65,3.23,1.26,1.36,2.21,2.98,2.85,4.84.64,1.86.96,3.87.96,6.01,0,.83-.33,1.62-.99,2.39-.66.77-1.53,1.15-2.61,1.15h-16.81c.41,1.96,1.32,3.39,2.73,4.3,1.41.9,2.98,1.35,4.71,1.35,1.07,0,2.11-.15,3.1-.43.99-.29,1.9-.64,2.73-1.05,1.03-.46,1.92-.6,2.67-.43.74.16,1.39.74,1.92,1.74l.87,1.62c.5.96.66,1.84.5,2.66-.17.81-.72,1.49-1.68,2.03-1.16.67-2.66,1.31-4.5,1.94-1.84.62-4,.94-6.48.94-2.85,0-5.37-.48-7.57-1.43-2.19-.95-4.02-2.2-5.49-3.75-1.47-1.55-2.58-3.34-3.35-5.36-.77-2.03-1.15-4.09-1.15-6.2ZM287.66,238.31c0-1.32-.39-2.45-1.18-3.38s-1.86-1.39-3.22-1.39c-1.57,0-2.75.47-3.54,1.43-.79.95-1.32,2.07-1.61,3.35h9.55Z"/><path class="cls-2" d="M305.96,263.5c.41-1.08.95-1.78,1.61-2.09s1.57-.28,2.73.09c.79.25,1.62.46,2.51.62.89.16,1.95.25,3.19.25.99,0,1.94-.1,2.85-.3.91-.21,1.71-.53,2.39-.98.68-.45,1.23-1.06,1.64-1.84s.62-1.76.62-2.95v-2.36c0-.16.02-.31.06-.43h-.12c-.87,1.28-1.91,2.25-3.13,2.91-1.22.66-2.78.99-4.68.99-2.44,0-4.58-.45-6.42-1.37-1.84-.91-3.36-2.11-4.56-3.6-1.2-1.49-2.1-3.19-2.7-5.12-.6-1.92-.9-3.92-.9-5.99s.29-3.98.87-5.86c.58-1.88,1.48-3.56,2.7-5.02,1.22-1.47,2.75-2.64,4.59-3.5,1.84-.87,4-1.3,6.48-1.3,1.74,0,3.15.22,4.25.65,1.09.43,1.99.92,2.7,1.46.74.62,1.34,1.3,1.8,2.05h.12s-.06-.11-.06-.19v-.56c0-.74.29-1.38.87-1.89.58-.52,1.43-.78,2.54-.78h2.92c2.27,0,3.41,1.14,3.41,3.41v25.62c0,2.94-.54,5.4-1.61,7.41-1.08,2-2.46,3.65-4.16,4.93-1.69,1.28-3.59,2.2-5.67,2.76s-4.15.84-6.17.84c-1.86,0-3.67-.16-5.43-.47-1.76-.31-3.11-.68-4.06-1.09-2.03-.83-2.65-2.31-1.86-4.44l.68-1.87ZM317.99,248.42c.7,0,1.4-.1,2.08-.31.68-.21,1.3-.56,1.86-1.08.56-.51,1-1.22,1.33-2.12.33-.9.5-2.05.5-3.44s-.18-2.53-.53-3.41c-.35-.88-.81-1.58-1.37-2.09s-1.22-.86-1.98-1.05c-.77-.18-1.54-.28-2.33-.28-1.9,0-3.33.59-4.28,1.78-.95,1.19-1.42,2.7-1.42,4.55,0,.98.12,1.93.37,2.83.25.9.62,1.69,1.11,2.37.5.68,1.13,1.22,1.89,1.63.77.41,1.69.62,2.76.62Z"/><path class="cls-2" d="M338.46,249.35c0-2.15.57-3.93,1.71-5.33,1.14-1.41,2.6-2.52,4.37-3.35,1.78-.83,3.72-1.4,5.83-1.73,2.11-.33,4.16-.5,6.14-.5h.93v-.56c0-1.32-.46-2.24-1.37-2.76-.91-.52-1.96-.77-3.16-.77-1.03,0-2.05.15-3.04.43-.99.29-1.9.62-2.73.99-2.11.91-3.64.42-4.59-1.49l-.74-1.55c-.46-.95-.58-1.83-.37-2.64s.79-1.46,1.74-1.95c1.2-.58,2.71-1.14,4.53-1.68,1.82-.54,3.89-.81,6.2-.81,4.42,0,7.91,1.15,10.45,3.44,2.54,2.3,3.82,5.49,3.82,9.58v16.25c0,2.27-1.14,3.41-3.41,3.41h-2.98c-2.27,0-3.41-1.16-3.41-3.47v-.68c0-.08.02-.15.06-.19h-.12c-.62.95-1.39,1.8-2.3,2.54-.79.66-1.78,1.25-2.98,1.77-1.2.52-2.58.77-4.16.77s-2.94-.25-4.22-.74c-1.28-.5-2.38-1.18-3.29-2.05-.91-.87-1.62-1.9-2.14-3.1-.52-1.2-.77-2.48-.77-3.84ZM349.06,248.36c0,.74.26,1.39.77,1.92s1.27.8,2.26.8c.79,0,1.51-.18,2.17-.53.66-.35,1.24-.8,1.73-1.33s.88-1.14,1.15-1.8c.27-.66.4-1.32.4-1.98v-.87h-.99c-.83,0-1.68.06-2.57.19-.89.12-1.69.33-2.42.62-.73.29-1.32.67-1.8,1.15s-.71,1.08-.71,1.83Z"/><path class="cls-2" d="M373.87,217.41c0-2.27,1.14-3.41,3.41-3.41h3.91c2.27,0,3.41,1.14,3.41,3.41v28.65c0,1.2.18,2.01.53,2.42.35.41.77.66,1.27.74.74.08,1.34.35,1.8.81s.68,1.16.68,2.11v3.04c0,1.07-.27,1.92-.8,2.54-.54.62-1.43.93-2.67.93-1.37,0-2.74-.12-4.13-.37-1.38-.25-2.63-.8-3.72-1.64s-1.98-2.07-2.67-3.66-1.03-3.73-1.03-6.42v-29.15Z"/><path class="cls-2" d="M409.66,217.41c0-2.27,1.14-3.41,3.41-3.41h4.03c2.27,0,3.41,1.14,3.41,3.41v37.53c0,2.27-1.14,3.41-3.41,3.41h-4.03c-2.27,0-3.41-1.14-3.41-3.41v-37.53Z"/><path class="cls-2" d="M427.21,229.81c0-2.27,1.14-3.41,3.41-3.41h3.47c2.23,0,3.35,1.14,3.35,3.41v.56c0,.08-.01.17-.03.25-.02.08-.03.17-.03.25v.31h.12c.37-.62.85-1.26,1.43-1.92s1.28-1.25,2.11-1.77c.83-.52,1.79-.95,2.88-1.3,1.1-.35,2.34-.53,3.75-.53,1.61,0,3.12.21,4.53.62,1.4.42,2.61,1.09,3.63,2.02,1.01.93,1.82,2.16,2.42,3.69.6,1.53.9,3.41.9,5.64v17.31c0,2.27-1.14,3.41-3.41,3.41h-3.91c-2.27,0-3.41-1.14-3.41-3.41v-15.32c0-1.49-.29-2.56-.87-3.23-.58-.66-1.47-.99-2.67-.99s-2.23.23-3.1.68c-.87.46-1.59,1.08-2.17,1.86-.58.79-1,1.7-1.27,2.73-.27,1.04-.4,2.11-.4,3.23v11.04c0,2.27-1.14,3.41-3.41,3.41h-3.91c-2.27,0-3.41-1.14-3.41-3.41v-25.12Z"/><path class="cls-2" d="M465.05,229.81c0-2.27,1.14-3.41,3.41-3.41h3.47c2.23,0,3.35,1.14,3.35,3.41v.56c0,.08-.01.17-.03.25-.02.08-.03.17-.03.25v.31h.12c.37-.62.85-1.26,1.43-1.92s1.28-1.25,2.11-1.77c.83-.52,1.79-.95,2.88-1.3,1.1-.35,2.34-.53,3.75-.53,1.61,0,3.12.21,4.53.62,1.4.42,2.61,1.09,3.63,2.02,1.01.93,1.82,2.16,2.42,3.69.6,1.53.9,3.41.9,5.64v17.31c0,2.27-1.14,3.41-3.41,3.41h-3.91c-2.27,0-3.41-1.14-3.41-3.41v-15.32c0-1.49-.29-2.56-.87-3.23-.58-.66-1.47-.99-2.67-.99s-2.23.23-3.1.68c-.87.46-1.59,1.08-2.17,1.86-.58.79-1,1.7-1.27,2.73-.27,1.04-.4,2.11-.4,3.23v11.04c0,2.27-1.14,3.41-3.41,3.41h-3.91c-2.27,0-3.41-1.14-3.41-3.41v-25.12Z"/><path class="cls-2" d="M501.08,242.47c0-2.52.47-4.82,1.42-6.89.95-2.07,2.24-3.83,3.88-5.3s3.55-2.61,5.74-3.41c2.19-.81,4.53-1.21,7.01-1.21s4.89.4,7.1,1.21c2.21.8,4.14,1.94,5.77,3.41s2.92,3.24,3.88,5.3c.95,2.07,1.43,4.36,1.43,6.89s-.48,4.75-1.43,6.79c-.95,2.05-2.24,3.8-3.88,5.27s-3.55,2.6-5.74,3.38c-2.19.79-4.55,1.18-7.07,1.18s-4.88-.39-7.07-1.18c-2.19-.79-4.11-1.91-5.74-3.38s-2.92-3.22-3.88-5.27c-.95-2.05-1.42-4.31-1.42-6.79ZM511.94,242.47c0,1.19.19,2.26.59,3.2.39.94.92,1.74,1.58,2.4.66.66,1.43,1.16,2.3,1.51s1.8.52,2.79.52,1.92-.18,2.79-.52c.87-.35,1.63-.85,2.29-1.51.66-.66,1.19-1.45,1.58-2.4.39-.94.59-2.01.59-3.2s-.2-2.27-.59-3.23c-.39-.96-.92-1.79-1.58-2.46-.66-.68-1.43-1.2-2.29-1.57-.87-.37-1.8-.55-2.79-.55s-1.92.18-2.79.55-1.64.89-2.3,1.57c-.66.67-1.19,1.5-1.58,2.46-.39.96-.59,2.04-.59,3.23Z"/><path class="cls-2" d="M539.04,230.31c-.42-1.2-.37-2.15.12-2.85.5-.7,1.38-1.05,2.67-1.05h4.16c1.99,0,3.25.95,3.79,2.85l4.16,14.14c.16.54.31,1.12.43,1.74.12.62.25,1.22.37,1.8.12.66.25,1.32.37,1.99h.12c.08-.66.21-1.32.37-1.99.08-.58.19-1.18.34-1.8.15-.62.3-1.2.46-1.74l4.1-14.14c.54-1.9,1.8-2.85,3.78-2.85h4.28c1.24,0,2.12.35,2.64,1.05.52.7.57,1.65.16,2.85l-8.62,25.25c-.62,1.86-1.9,2.79-3.84,2.79h-7.26c-1.94,0-3.22-.93-3.84-2.79l-8.74-25.25Z"/><path class="cls-2" d="M572.72,249.35c0-2.15.57-3.93,1.71-5.33,1.14-1.41,2.6-2.52,4.37-3.35,1.78-.83,3.72-1.4,5.83-1.73,2.11-.33,4.16-.5,6.14-.5h.93v-.56c0-1.32-.46-2.24-1.37-2.76-.91-.52-1.96-.77-3.16-.77-1.03,0-2.05.15-3.04.43-.99.29-1.9.62-2.73.99-2.11.91-3.64.42-4.59-1.49l-.74-1.55c-.46-.95-.58-1.83-.37-2.64s.79-1.46,1.74-1.95c1.2-.58,2.71-1.14,4.53-1.68,1.82-.54,3.89-.81,6.2-.81,4.42,0,7.91,1.15,10.45,3.44,2.54,2.3,3.82,5.49,3.82,9.58v16.25c0,2.27-1.14,3.41-3.41,3.41h-2.98c-2.27,0-3.41-1.16-3.41-3.47v-.68c0-.08.02-.15.06-.19h-.12c-.62.95-1.39,1.8-2.3,2.54-.79.66-1.78,1.25-2.98,1.77-1.2.52-2.58.77-4.16.77s-2.94-.25-4.22-.74c-1.28-.5-2.38-1.18-3.29-2.05-.91-.87-1.62-1.9-2.14-3.1-.52-1.2-.77-2.48-.77-3.84ZM583.33,248.36c0,.74.26,1.39.77,1.92s1.27.8,2.26.8c.79,0,1.51-.18,2.17-.53.66-.35,1.24-.8,1.73-1.33s.88-1.14,1.15-1.8c.27-.66.4-1.32.4-1.98v-.87h-.99c-.83,0-1.68.06-2.57.19-.89.12-1.69.33-2.42.62-.73.29-1.32.67-1.8,1.15s-.71,1.08-.71,1.83Z"/><path class="cls-2" d="M610,235.33h-.93c-2.23,0-3.35-1.14-3.35-3.41v-1.55c0-2.27,1.14-3.41,3.41-3.41h1.18v-5.77c0-2.27,1.14-3.41,3.41-3.41h3.6c2.27,0,3.41,1.14,3.41,3.41v5.77h3.29c2.27,0,3.41,1.14,3.41,3.41v1.55c0,2.27-1.12,3.41-3.35,3.41h-3.35v9.68c0,1.36.38,2.35,1.15,2.95s1.62.96,2.57,1.08c1.24.16,2.12.47,2.64.93.52.45.77,1.28.77,2.48v2.79c0,1.28-.37,2.17-1.11,2.67s-1.84.74-3.29.74c-1.2,0-2.56-.16-4.09-.5-1.53-.33-3-.93-4.4-1.8-1.41-.87-2.58-2.06-3.53-3.56-.95-1.51-1.43-3.44-1.43-5.8v-11.66Z"/><path class="cls-2" d="M632.58,229.81c0-2.27,1.14-3.41,3.41-3.41h3.91c2.27,0,3.41,1.14,3.41,3.41v25.12c0,2.27-1.14,3.41-3.41,3.41h-3.91c-2.27,0-3.41-1.14-3.41-3.41v-25.12ZM636.11,222.37c-2.27,0-3.41-1.14-3.41-3.41v-1.55c0-2.27,1.14-3.41,3.41-3.41h3.66c2.27,0,3.41,1.14,3.41,3.41v1.55c0,2.27-1.14,3.41-3.41,3.41h-3.66Z"/><path class="cls-2" d="M647.84,242.47c0-2.52.47-4.82,1.42-6.89.95-2.07,2.24-3.83,3.88-5.3s3.55-2.61,5.74-3.41c2.19-.81,4.53-1.21,7.01-1.21s4.89.4,7.1,1.21c2.21.8,4.14,1.94,5.77,3.41s2.92,3.24,3.88,5.3c.95,2.07,1.43,4.36,1.43,6.89s-.48,4.75-1.43,6.79c-.95,2.05-2.24,3.8-3.88,5.27-1.63,1.47-3.55,2.6-5.74,3.38-2.19.79-4.55,1.18-7.07,1.18s-4.88-.39-7.07-1.18c-2.19-.79-4.11-1.91-5.74-3.38s-2.92-3.22-3.88-5.27c-.95-2.05-1.42-4.31-1.42-6.79ZM658.69,242.47c0,1.19.19,2.26.59,3.2.39.94.92,1.74,1.58,2.4.66.66,1.43,1.16,2.3,1.51s1.8.52,2.79.52,1.92-.18,2.79-.52c.87-.35,1.63-.85,2.29-1.51.66-.66,1.19-1.45,1.58-2.4.39-.94.59-2.01.59-3.2s-.2-2.27-.59-3.23c-.39-.96-.92-1.79-1.58-2.46-.66-.68-1.43-1.2-2.29-1.57-.87-.37-1.8-.55-2.79-.55s-1.92.18-2.79.55-1.64.89-2.3,1.57c-.66.67-1.19,1.5-1.58,2.46-.39.96-.59,2.04-.59,3.23Z"/><path class="cls-2" d="M688.58,229.81c0-2.27,1.14-3.41,3.41-3.41h3.47c2.23,0,3.35,1.14,3.35,3.41v.56c0,.08-.01.17-.03.25-.02.08-.03.17-.03.25v.31h.12c.37-.62.85-1.26,1.43-1.92s1.28-1.25,2.11-1.77c.83-.52,1.79-.95,2.88-1.3,1.1-.35,2.34-.53,3.75-.53,1.61,0,3.12.21,4.53.62,1.4.42,2.61,1.09,3.63,2.02,1.01.93,1.82,2.16,2.42,3.69.6,1.53.9,3.41.9,5.64v17.31c0,2.27-1.14,3.41-3.41,3.41h-3.91c-2.27,0-3.41-1.14-3.41-3.41v-15.32c0-1.49-.29-2.56-.87-3.23-.58-.66-1.47-.99-2.67-.99s-2.23.23-3.1.68c-.87.46-1.59,1.08-2.17,1.86-.58.79-1,1.7-1.27,2.73-.27,1.04-.4,2.11-.4,3.23v11.04c0,2.27-1.14,3.41-3.41,3.41h-3.91c-2.27,0-3.41-1.14-3.41-3.41v-25.12Z"/><path class="cls-2" d="M740.62,245.51c0-1.16.16-2.27.5-3.35.33-1.07.8-2.08,1.42-3.01s1.37-1.76,2.23-2.48,1.84-1.31,2.91-1.77v-.12c-.99-.5-1.86-1.18-2.6-2.05-.66-.74-1.26-1.73-1.8-2.95s-.81-2.74-.81-4.56c0-2.15.41-3.98,1.24-5.49.83-1.51,1.92-2.75,3.29-3.72,1.37-.97,2.92-1.68,4.68-2.11,1.76-.43,3.57-.65,5.43-.65h2.23c2.27,0,3.41,1.14,3.41,3.41v2.17c0,2.27-1.14,3.41-3.41,3.41h-1.3c-1.65,0-2.83.49-3.53,1.46-.7.97-1.05,2.02-1.05,3.13s.38,2.11,1.15,2.98c.77.87,1.89,1.3,3.38,1.3h5.4v-2.05c0-2.27,1.14-3.41,3.41-3.41h3.84c2.27,0,3.41.91,3.41,2.73v2.73h2.11c2.27,0,3.41,1.14,3.41,3.41v2.48c0,2.27-1.14,3.41-3.41,3.41h-2.11v4.28c0,1.98-.37,3.86-1.12,5.61-.74,1.76-1.84,3.29-3.29,4.59-1.45,1.3-3.22,2.33-5.3,3.07-2.09.74-4.5,1.12-7.23,1.12-2.52,0-4.81-.35-6.85-1.05-2.05-.7-3.78-1.66-5.21-2.88-1.42-1.22-2.52-2.66-3.29-4.31-.77-1.65-1.15-3.43-1.15-5.33ZM751.72,244.82c0,1.2.52,2.23,1.55,3.1s2.32,1.3,3.84,1.3c2.07,0,3.63-.5,4.68-1.49,1.05-.99,1.58-2.21,1.58-3.66v-3.66h-6.08c-.7,0-1.39.07-2.08.22s-1.28.39-1.8.74c-.52.35-.93.81-1.24,1.37-.31.56-.47,1.25-.47,2.08Z"/><path class="cls-2" d="M246.66,295.14h-10.05c-2.27,0-3.41-1.14-3.41-3.41v-2.48c0-2.27,1.14-3.41,3.41-3.41h30.95c2.27,0,3.41,1.14,3.41,3.41v2.48c0,2.27-1.14,3.41-3.41,3.41h-10.05v31.63c0,2.27-1.14,3.41-3.41,3.41h-4.03c-2.27,0-3.41-1.14-3.41-3.41v-31.63Z"/><path class="cls-2" d="M267.5,314.18c0-2.36.38-4.55,1.15-6.58.76-2.02,1.86-3.78,3.29-5.27,1.43-1.49,3.17-2.67,5.24-3.53,2.07-.87,4.38-1.3,6.95-1.3,2.36,0,4.46.39,6.3,1.18,1.84.79,3.39,1.86,4.65,3.23,1.26,1.36,2.21,2.98,2.85,4.84.64,1.86.96,3.87.96,6.01,0,.83-.33,1.62-.99,2.39-.66.77-1.53,1.15-2.61,1.15h-16.81c.41,1.96,1.32,3.39,2.73,4.3,1.41.9,2.98,1.35,4.71,1.35,1.07,0,2.11-.15,3.1-.43.99-.29,1.9-.64,2.73-1.05,1.03-.46,1.92-.6,2.67-.43.74.16,1.39.74,1.92,1.74l.87,1.62c.5.96.66,1.84.5,2.66-.17.81-.72,1.49-1.68,2.03-1.16.67-2.66,1.31-4.5,1.94-1.84.62-4,.94-6.48.94-2.85,0-5.37-.48-7.57-1.43-2.19-.95-4.02-2.2-5.49-3.75-1.47-1.55-2.58-3.34-3.35-5.36-.77-2.03-1.15-4.09-1.15-6.2ZM288.28,310.15c0-1.32-.39-2.45-1.18-3.38s-1.86-1.39-3.22-1.39c-1.57,0-2.75.47-3.54,1.43-.79.95-1.32,2.07-1.61,3.35h9.55Z"/><path class="cls-2" d="M301.49,314.18c0-2.15.39-4.23,1.18-6.23.78-2,1.93-3.78,3.44-5.33,1.51-1.55,3.37-2.79,5.58-3.72,2.21-.93,4.75-1.4,7.6-1.4,2.44,0,4.51.3,6.2.91,1.69.6,3.06,1.26,4.09,1.97.87.58,1.35,1.28,1.46,2.09.11.81-.13,1.68-.71,2.59l-1.05,1.62c-.58.95-1.24,1.48-1.98,1.58s-1.61-.09-2.61-.59c-.62-.33-1.32-.61-2.11-.84-.79-.23-1.66-.34-2.61-.34-1.28,0-2.4.22-3.35.64-.95.43-1.75,1.01-2.39,1.72-.64.72-1.12,1.53-1.43,2.43-.31.9-.46,1.83-.46,2.77s.16,1.89.5,2.83c.33.94.83,1.78,1.49,2.52.66.74,1.49,1.34,2.48,1.81.99.47,2.17.71,3.53.71,1.07,0,2.11-.19,3.1-.56.99-.37,1.88-.79,2.67-1.24,1.03-.58,1.93-.79,2.7-.62.76.17,1.42.77,1.95,1.8l.81,1.56c.45.96.62,1.83.5,2.62s-.6,1.48-1.43,2.06c-1.12.75-2.63,1.5-4.53,2.25-1.9.75-4.18,1.13-6.82,1.13-2.85,0-5.39-.46-7.6-1.37-2.21-.91-4.07-2.14-5.58-3.69-1.51-1.55-2.66-3.34-3.44-5.36-.79-2.03-1.18-4.13-1.18-6.33Z"/><path class="cls-2" d="M336.16,289.24c0-2.27,1.14-3.41,3.41-3.41h3.91c2.27,0,3.41,1.14,3.41,3.41v10.61c0,.41-.01.79-.03,1.12-.02.33-.03.62-.03.87-.04.29-.06.54-.06.74h.12c.91-1.57,2.23-2.81,3.97-3.72,1.73-.91,3.66-1.37,5.77-1.37,1.61,0,3.12.21,4.53.62,1.41.42,2.62,1.09,3.63,2.02,1.01.93,1.82,2.16,2.42,3.69.6,1.53.9,3.41.9,5.64v17.31c0,2.27-1.14,3.41-3.41,3.41h-3.91c-2.27,0-3.41-1.14-3.41-3.41v-15.32c0-1.49-.29-2.56-.87-3.23-.58-.66-1.47-.99-2.67-.99-2.32,0-4.05.82-5.21,2.45-1.16,1.64-1.74,3.67-1.74,6.11v10.98c0,2.27-1.14,3.41-3.41,3.41h-3.91c-2.27,0-3.41-1.14-3.41-3.41v-37.53Z"/><path class="cls-2" d="M373.99,301.65c0-2.27,1.14-3.41,3.41-3.41h3.47c2.23,0,3.35,1.14,3.35,3.41v.56c0,.08-.01.17-.03.25-.02.08-.03.17-.03.25v.31h.12c.37-.62.85-1.26,1.43-1.92s1.28-1.25,2.11-1.77c.83-.52,1.79-.95,2.88-1.3,1.1-.35,2.34-.53,3.75-.53,1.61,0,3.12.21,4.53.62,1.4.42,2.61,1.09,3.63,2.02,1.01.93,1.82,2.16,2.42,3.69.6,1.53.9,3.41.9,5.64v17.31c0,2.27-1.14,3.41-3.41,3.41h-3.91c-2.27,0-3.41-1.14-3.41-3.41v-15.32c0-1.49-.29-2.56-.87-3.23-.58-.66-1.47-.99-2.67-.99s-2.23.23-3.1.68c-.87.46-1.59,1.08-2.17,1.86-.58.79-1,1.7-1.27,2.73-.27,1.04-.4,2.11-.4,3.23v11.04c0,2.27-1.14,3.41-3.41,3.41h-3.91c-2.27,0-3.41-1.14-3.41-3.41v-25.12Z"/><path class="cls-2" d="M410.03,314.3c0-2.52.47-4.82,1.42-6.89.95-2.07,2.24-3.83,3.88-5.3s3.55-2.61,5.74-3.41c2.19-.81,4.53-1.21,7.01-1.21s4.89.4,7.1,1.21c2.21.8,4.14,1.94,5.77,3.41s2.92,3.24,3.88,5.3c.95,2.07,1.43,4.36,1.43,6.89s-.48,4.75-1.43,6.79c-.95,2.05-2.24,3.8-3.88,5.27s-3.55,2.6-5.74,3.38c-2.19.79-4.55,1.18-7.07,1.18s-4.88-.39-7.07-1.18c-2.19-.79-4.11-1.91-5.74-3.38s-2.92-3.22-3.88-5.27c-.95-2.05-1.42-4.31-1.42-6.79ZM420.88,314.3c0,1.19.19,2.26.59,3.2.39.94.92,1.74,1.58,2.4.66.66,1.43,1.16,2.3,1.51s1.8.52,2.79.52,1.92-.18,2.79-.52c.87-.35,1.63-.85,2.29-1.51.66-.66,1.19-1.45,1.58-2.4.39-.94.59-2.01.59-3.2s-.2-2.27-.59-3.23c-.39-.96-.92-1.79-1.58-2.46-.66-.68-1.43-1.2-2.29-1.57-.87-.37-1.8-.55-2.79-.55s-1.92.18-2.79.55-1.64.89-2.3,1.57c-.66.67-1.19,1.5-1.58,2.46-.39.96-.59,2.04-.59,3.23Z"/><path class="cls-2" d="M450.65,289.24c0-2.27,1.14-3.41,3.41-3.41h3.91c2.27,0,3.41,1.14,3.41,3.41v28.65c0,1.2.18,2.01.53,2.42.35.41.77.66,1.27.74.74.08,1.34.35,1.8.81s.68,1.16.68,2.11v3.04c0,1.07-.27,1.92-.8,2.54-.54.62-1.43.93-2.67.93-1.37,0-2.74-.12-4.13-.37-1.38-.25-2.63-.8-3.72-1.64s-1.98-2.07-2.67-3.66-1.03-3.73-1.03-6.42v-29.15Z"/><path class="cls-2" d="M467.77,314.3c0-2.52.47-4.82,1.42-6.89.95-2.07,2.24-3.83,3.88-5.3,1.63-1.47,3.55-2.61,5.74-3.41,2.19-.81,4.53-1.21,7.01-1.21s4.89.4,7.1,1.21c2.21.8,4.14,1.94,5.77,3.41s2.92,3.24,3.88,5.3c.95,2.07,1.43,4.36,1.43,6.89s-.48,4.75-1.43,6.79c-.95,2.05-2.24,3.8-3.88,5.27s-3.55,2.6-5.74,3.38c-2.19.79-4.55,1.18-7.07,1.18s-4.88-.39-7.07-1.18c-2.19-.79-4.11-1.91-5.74-3.38-1.63-1.47-2.92-3.22-3.88-5.27-.95-2.05-1.42-4.31-1.42-6.79ZM478.63,314.3c0,1.19.19,2.26.59,3.2.39.94.92,1.74,1.58,2.4.66.66,1.43,1.16,2.3,1.51s1.8.52,2.79.52,1.92-.18,2.79-.52c.87-.35,1.63-.85,2.29-1.51.66-.66,1.19-1.45,1.58-2.4.39-.94.59-2.01.59-3.2s-.2-2.27-.59-3.23c-.39-.96-.92-1.79-1.58-2.46-.66-.68-1.43-1.2-2.29-1.57-.87-.37-1.8-.55-2.79-.55s-1.92.18-2.79.55-1.64.89-2.3,1.57c-.66.67-1.19,1.5-1.58,2.46-.39.96-.59,2.04-.59,3.23Z"/><path class="cls-2" d="M511.81,335.34c.41-1.08.95-1.78,1.61-2.09s1.57-.28,2.73.09c.79.25,1.62.46,2.51.62.89.16,1.95.25,3.19.25.99,0,1.94-.1,2.85-.3.91-.21,1.71-.53,2.39-.98.68-.45,1.23-1.06,1.64-1.84s.62-1.76.62-2.95v-2.36c0-.16.02-.31.06-.43h-.12c-.87,1.28-1.91,2.25-3.13,2.91-1.22.66-2.78.99-4.68.99-2.44,0-4.58-.45-6.42-1.37-1.84-.91-3.36-2.11-4.56-3.6-1.2-1.49-2.1-3.19-2.7-5.12-.6-1.92-.9-3.92-.9-5.99s.29-3.98.87-5.86c.58-1.88,1.48-3.56,2.7-5.02,1.22-1.47,2.75-2.64,4.59-3.5,1.84-.87,4-1.3,6.48-1.3,1.74,0,3.15.22,4.25.65,1.09.43,1.99.92,2.7,1.46.74.62,1.34,1.3,1.8,2.05h.12s-.06-.11-.06-.19v-.56c0-.74.29-1.38.87-1.89.58-.52,1.43-.78,2.54-.78h2.92c2.27,0,3.41,1.14,3.41,3.41v25.62c0,2.94-.54,5.4-1.61,7.41-1.08,2-2.46,3.65-4.16,4.93-1.69,1.28-3.59,2.2-5.67,2.76s-4.15.84-6.17.84c-1.86,0-3.67-.16-5.43-.47-1.76-.31-3.11-.68-4.06-1.09-2.03-.83-2.65-2.31-1.86-4.44l.68-1.87ZM523.84,320.26c.7,0,1.4-.1,2.08-.31.68-.21,1.3-.56,1.86-1.08.56-.51,1-1.22,1.33-2.12.33-.9.5-2.05.5-3.44s-.18-2.53-.53-3.41c-.35-.88-.81-1.58-1.37-2.09s-1.22-.86-1.98-1.05c-.77-.18-1.54-.28-2.33-.28-1.9,0-3.33.59-4.28,1.78-.95,1.19-1.42,2.7-1.42,4.55,0,.98.12,1.93.37,2.83.25.9.62,1.69,1.11,2.37.5.68,1.13,1.22,1.89,1.63.77.41,1.69.62,2.76.62Z"/><path class="cls-2" d="M546.76,334.34c.6-.25,1.23-.31,1.89-.19.25.08.53.16.84.22s.65.09,1.03.09c.95,0,1.83-.33,2.64-.99.8-.66,1.39-1.47,1.77-2.42l.62-1.49-11.85-27.35c-.54-1.2-.57-2.16-.09-2.88s1.38-1.09,2.7-1.09h4.84c1.99,0,3.29.93,3.91,2.79l3.78,11.91c.12.46.26.97.4,1.55.15.58.28,1.12.4,1.61.16.62.29,1.22.37,1.8h.12c.12-.58.25-1.15.37-1.73.08-.5.19-1.01.31-1.55s.25-1.03.37-1.49l3.22-11.97c.54-1.95,1.82-2.92,3.84-2.92h4.53c1.24,0,2.12.35,2.64,1.05.52.7.55,1.65.09,2.85l-11.66,31.45c-.66,1.78-1.49,3.28-2.48,4.5-.99,1.22-2.08,2.21-3.25,2.98-1.18.77-2.42,1.31-3.72,1.65-1.3.33-2.6.49-3.87.49-.83,0-1.62-.08-2.39-.25-.77-.17-1.46-.35-2.08-.56-1.03-.33-1.68-.91-1.95-1.74-.27-.83-.18-1.74.28-2.73l.81-1.8c.45-.95.98-1.55,1.58-1.8Z"/><path class="cls-2" d="M596.1,289.24c0-2.27,1.14-3.41,3.41-3.41h4.03c2.27,0,3.41,1.14,3.41,3.41v31.63h14.7c2.27,0,3.41,1.14,3.41,3.41v2.48c0,2.27-1.14,3.41-3.41,3.41h-22.14c-2.27,0-3.41-1.14-3.41-3.41v-37.53Z"/><path class="cls-2" d="M626.25,321.19c0-2.15.57-3.93,1.71-5.33,1.14-1.41,2.6-2.52,4.37-3.35,1.78-.83,3.72-1.4,5.83-1.73,2.11-.33,4.16-.5,6.14-.5h.93v-.56c0-1.32-.46-2.24-1.37-2.76-.91-.52-1.96-.77-3.16-.77-1.03,0-2.05.15-3.04.43-.99.29-1.9.62-2.73.99-2.11.91-3.64.42-4.59-1.49l-.74-1.55c-.46-.95-.58-1.83-.37-2.64s.79-1.46,1.74-1.95c1.2-.58,2.71-1.14,4.53-1.68,1.82-.54,3.89-.81,6.2-.81,4.42,0,7.91,1.15,10.45,3.44,2.54,2.3,3.82,5.49,3.82,9.58v16.25c0,2.27-1.14,3.41-3.41,3.41h-2.98c-2.27,0-3.41-1.16-3.41-3.47v-.68c0-.08.02-.15.06-.19h-.12c-.62.95-1.39,1.8-2.3,2.54-.79.66-1.78,1.25-2.98,1.77-1.2.52-2.58.77-4.16.77s-2.94-.25-4.22-.74c-1.28-.5-2.38-1.18-3.29-2.05-.91-.87-1.62-1.9-2.14-3.1-.52-1.2-.77-2.48-.77-3.84ZM636.85,320.2c0,.74.26,1.39.77,1.92s1.27.8,2.26.8c.79,0,1.51-.18,2.17-.53.66-.35,1.24-.8,1.73-1.33s.88-1.14,1.15-1.8c.27-.66.4-1.32.4-1.98v-.87h-.99c-.83,0-1.68.06-2.57.19-.89.12-1.69.33-2.42.62-.73.29-1.32.67-1.8,1.15s-.71,1.08-.71,1.83Z"/><path class="cls-2" d="M661.85,289.24c0-2.27,1.14-3.41,3.41-3.41h3.91c2.27,0,3.41,1.14,3.41,3.41v9.55c0,.41-.01.79-.03,1.12-.02.33-.03.62-.03.87-.04.29-.06.54-.06.74h.12c.58-.74,1.3-1.41,2.17-1.99.7-.5,1.61-.96,2.73-1.39,1.12-.43,2.42-.65,3.91-.65,2.11,0,4.03.4,5.77,1.21,1.74.8,3.23,1.94,4.47,3.41,1.24,1.47,2.21,3.22,2.91,5.24.7,2.03,1.05,4.26,1.05,6.7,0,2.57-.38,4.89-1.15,6.98-.77,2.09-1.81,3.87-3.13,5.33-1.32,1.47-2.88,2.6-4.65,3.38-1.78.79-3.7,1.18-5.77,1.18-1.74,0-3.18-.23-4.31-.68-1.14-.45-2.06-.97-2.76-1.55-.83-.66-1.51-1.41-2.05-2.23h-.12v.19c0,.08.01.15.03.22.02.06.03.13.03.22v.25c0,.83-.29,1.51-.87,2.05-.58.54-1.43.81-2.54.81h-3.04c-2.27,0-3.41-1.14-3.41-3.41v-37.53ZM672.27,314.08c0,1.08.13,2.1.4,3.05.27.96.66,1.8,1.18,2.52.52.73,1.15,1.31,1.92,1.74.77.44,1.64.66,2.64.66,1.78,0,3.29-.66,4.53-1.99,1.24-1.33,1.86-3.24,1.86-5.73s-.57-4.27-1.71-5.7c-1.14-1.43-2.64-2.15-4.5-2.15-.83,0-1.62.15-2.39.47-.77.31-1.44.78-2.02,1.4-.58.62-1.04,1.41-1.39,2.37-.35.96-.53,2.07-.53,3.36Z"/><path class="cls-2" d="M244.89,389.14c-3.02,0-6.04-.65-8.76-2.01l-.5-8.26h1.83c.4,2.48.72,4.27,1.98,5.96s3.23,2.51,5.25,2.51c3.38,0,5.53-2.26,5.53-4.78,0-2.23-1.37-3.56-3.7-4.74l-5.35-2.73c-1.94-1-5.03-2.62-5.03-6.68,0-3.81,2.98-7.11,8.62-7.11,2.77,0,5.46.65,7.94,1.83l.29,7.47h-1.76c-.47-5.21-3.52-7.51-6.68-7.51-2.62,0-4.71,1.55-4.71,3.99,0,1.69.75,3.09,3.56,4.45l5.1,2.51c2.01.97,5.6,2.73,5.6,7.26,0,5.28-4.78,7.83-9.2,7.83Z"/><path class="cls-2" d="M272.58,388.81c-.57-.9-.61-1.11-.86-3.81-3.05,2.84-4.92,3.81-6.82,3.81-2.3,0-3.88-1.44-4.6-2.84-.61-1.22-.65-2.94-.65-4.49v-8.15c0-1.15-.07-2.58-1.98-2.58h-1.08v-1.62l5.6-.32h.86v12.71c0,1.37,0,4.92,3.2,4.92,1.79,0,3.52-1.33,5.46-3.52v-9.45c0-1.26-.04-2.73-2.01-2.73h-1.69v-1.62l6.25-.32h.86v15.27c0,1.22,0,2.8,1.72,2.8h1.47v1.62l-5.75.32Z"/><path class="cls-2" d="M301.24,361.04c3.48,0,5.42,1.62,5.42,3.34,0,1.01-.83,1.76-1.83,1.76s-1.76-.65-2.15-1.9c-.36-1.11-1.04-1.69-2.01-1.69-2.33,0-2.55,2.59-2.55,4.53v2.58h3.95v1.94h-3.95v13.25c0,1.87.43,2.01,1.54,2.01h2.41v1.62h-10.31v-1.62h1.44c1.15,0,1.54-.18,1.54-2.01v-13.25h-8.83v13.25c0,1.87.39,2.01,1.54,2.01h2.37v1.62h-10.49v-1.62h1.65c1.15,0,1.54-.18,1.54-2.01v-13.25h-3.2v-1.94h3.2v-1.26c0-5.03,2.87-7.36,7.87-7.36,2.51,0,4.45.61,5.86,1.87,1.15-1.25,2.8-1.87,4.99-1.87ZM294.74,366.36c-.57-.25-1.04-.75-1.36-1.58-.61-1.47-1.87-2.23-3.77-2.23-1.11,0-2.01.32-2.7,1.01s-1,2.16-1,4.45v1.65h8.83v-3.31Z"/><path class="cls-2" d="M313.71,388.81c-4.17,0-8.76-2.98-8.76-9.99s4.56-10.02,8.76-10.02,8.8,3.05,8.8,10.02-4.6,9.99-8.8,9.99ZM313.71,370.49c-4.74,0-4.99,5.78-4.99,8.55,0,2.58.4,8.08,4.99,8.08s5.03-5.82,5.03-8.51-.43-8.12-5.03-8.12Z"/><path class="cls-2" d="M324.55,388.49v-1.62h2.16c1.37,0,1.54-.54,1.54-2.01v-19.25c0-1.15-.04-2.48-2.01-2.48h-1.69v-1.62l6.25-.47h.86v23.81c0,1.47.18,2.01,1.55,2.01h2.12v1.62h-10.78Z"/><path class="cls-2" d="M349.05,388.49v-1.62c1.08,0,1.33,0,1.62-.07.32-.11.43-.36.43-.61,0-.36-.22-.68-.39-.97l-4.6-6.83-2.87,2.87v3.59c0,1.47.14,2.01,1.54,2.01h1.33v1.62h-9.23v-1.62h1.4c1.4,0,1.54-.57,1.54-2.01v-19.25c0-.93,0-2.48-2.01-2.48h-1.22v-1.62l5.78-.47h.86v17.96l5.82-5.82c.79-.79,1.11-1.22,1.11-1.62,0-.83-1.04-.83-1.9-.83h-.9v-1.62h8.94v1.62h-.61c-1.58,0-2.16.36-4.13,2.3l-3.09,3.02,5.96,8.91c.86,1.3,1.29,1.94,3.12,1.9v1.62h-8.51Z"/><path class="cls-2" d="M394.23,363.56c-3.7.04-3.7,2.66-3.7,4.13v12.72c0,1.37,0,3.73-1.83,5.82-2.19,2.48-5.6,2.91-7.76,2.91-3.23,0-6.82-1.01-8.4-3.77-.93-1.65-.93-3.48-.93-4.63v-15.12c0-1.51-.14-2.05-1.51-2.05h-2.19v-1.62h11.68v1.62h-2.51c-1.37,0-1.55.5-1.55,2.05v14.51c0,2.23,0,7.04,6.14,7.04,3.63,0,6.9-2.05,6.9-6.32v-13.15c0-2.8-.79-4.13-4.1-4.13v-1.62h9.77v1.62Z"/><path class="cls-2" d="M408.1,388.49v-1.62h1.37c1.36,0,1.54-.54,1.54-2.01v-8.69c0-1.15-.07-2.12-.43-2.87-.61-1.26-1.76-1.9-2.84-1.9-1.98,0-3.74,1.44-5.25,3.23l-.18.22v10.02c0,1.47.15,2.01,1.58,2.01h1.11v1.62h-9.02v-1.62h1.4c1.4,0,1.51-.54,1.51-2.01v-11.46c0-1.87-.11-2.66-2.08-2.66h-1.11v-1.62l5.67-.32c.68,1.29.97,2.69.93,4.02,2.8-2.7,4.64-4.02,6.9-4.02,2.01,0,3.84,1.18,4.49,2.91.68,1.8.72,3.27.72,4.31v8.83c0,1.47.14,2.01,1.51,2.01h1.44v1.62h-9.27Z"/><path class="cls-2" d="M418.98,388.49v-1.62h2.05c1.37,0,1.55-.54,1.55-2.01v-11.53c0-1.33-.25-2.58-2.01-2.58h-1.58v-1.62l6.14-.32h.86v16.05c0,1.47.15,2.01,1.51,2.01h2.01v1.62h-10.53ZM423.68,365.53c-1.22,0-2.23-.97-2.23-2.23,0-1.62,1.55-2.26,2.3-2.26,1.04,0,2.19.86,2.19,2.26,0,1.26-1.04,2.23-2.26,2.23Z"/><path class="cls-2" d="M449.33,370.74c-1.26,0-2.26.25-3.02,2.41l-5.46,15.34h-2.55l-5.93-15.73c-.5-1.37-.83-2.01-2.95-2.01v-1.62h8.87v1.62h-.9c-.61,0-1.79,0-1.79,1,0,.36.25,1.04.43,1.47l4.35,11.46,4.1-11.42c.07-.21.25-.79.25-1.22,0-1.29-1.62-1.29-2.62-1.29v-1.62h7.22v1.62Z"/><path class="cls-2" d="M466.61,383.35c-1.69,3.34-4.27,5.46-8.05,5.46-4.38,0-8.3-3.38-8.3-9.88,0-6.9,3.88-10.13,8.55-10.13,5.13,0,7.79,4.56,7.79,9.59v.79h-12.68c0,1.8,0,7.69,5.06,7.69,3.23,0,5.03-2.62,5.68-3.52h1.94ZM462.77,377.57c.04-.29.04-.57.04-.83.07-4.92-2.3-6.25-4.2-6.25-4.27,0-4.56,5.64-4.64,7.08h8.8Z"/><path class="cls-2" d="M482.66,374.55c-1.11,0-1.79-.86-1.79-1.69,0-.11.11-.72.11-.86,0-.68-.57-.9-.83-.9-1.4,0-4.45,3.56-4.92,4.13v9.62c0,1.47.14,2.01,1.58,2.01h2.59v1.62h-10.67v-1.62h1.55c1.36,0,1.54-.54,1.54-2.01v-11.64c0-1.08-.04-2.48-1.9-2.48h-1.18v-1.62l5.21-.32c.9,1.29,1.04,2.01,1.3,4.42,2.26-2.51,4.09-4.42,6.54-4.42,1.72,0,3.12,1.47,3.12,3.27,0,1.55-1.08,2.48-2.23,2.48Z"/><path class="cls-2" d="M494.05,388.81c-2.41,0-4.81-.4-6.93-1.47v-5.39h1.4c.47,4.2,3.56,5.17,5.82,5.17,3.27,0,4.13-1.94,4.13-3.2,0-1.62-1.37-2.41-3.59-3.05l-1.87-.54c-3.2-.93-5.71-2.37-5.71-5.71,0-3.09,2.3-5.82,6.53-5.82,2.05,0,4.1.54,5.89,1.54l.25,4.92h-1.44c-.29-1.22-1-4.78-4.96-4.78-2.19,0-3.63,1.33-3.63,2.98,0,1.98,1.76,2.8,4.35,3.49l1.22.32c3.92,1.04,5.68,2.69,5.68,5.64,0,3.38-2.48,5.89-7.15,5.89Z"/><path class="cls-2" d="M503.46,388.49v-1.62h2.05c1.37,0,1.55-.54,1.55-2.01v-11.53c0-1.33-.25-2.58-2.01-2.58h-1.58v-1.62l6.14-.32h.86v16.05c0,1.47.15,2.01,1.51,2.01h2.01v1.62h-10.52ZM508.16,365.53c-1.22,0-2.23-.97-2.23-2.23,0-1.62,1.54-2.26,2.3-2.26,1.04,0,2.19.86,2.19,2.26,0,1.26-1.04,2.23-2.26,2.23Z"/><path class="cls-2" d="M527.42,386.87c-2.37,1.76-4.13,1.94-4.92,1.94s-3.99-.11-3.99-4.42v-12.79h-3.3v-1.37c4.52-.75,4.96-4.42,5.1-7.61h1.62v7.04h5.03v1.94h-5.03v12.32c0,1.01,0,2.77,1.62,2.77,1.15,0,2.19-.61,3.88-1.87v2.05Z"/><path class="cls-2" d="M548.68,370.74c-2.08.04-2.55,1.08-3.2,2.77l-6.29,16.2c-1.76,4.52-4.17,4.96-5.67,4.96-2.55,0-3.66-1.55-3.66-2.77,0-1.01.65-2.01,1.94-2.01s1.9.97,1.9,1.62c0,.11-.07.54-.07.65,0,.54.36.83.72.83.68,0,2.01-.72,3.05-3.2l.79-1.87-6.36-15.09c-.86-2.05-1.58-2.08-2.98-2.08v-1.62h8.8v1.62h-1.08c-.61,0-1.51.07-1.51,1.11,0,.29.18.79.22.9l4.56,10.81,3.66-9.48c.18-.43.5-1.47.5-1.9,0-1.44-1.69-1.44-2.69-1.44v-1.62h7.36v1.62Z"/><path class="cls-2" d="M581.08,388.49h-21.8v-1.62h2.16c1.37,0,1.54-.54,1.54-2.01v-19.25c0-1.51-.18-2.05-1.54-2.05h-2.16v-1.62h12.61v1.62h-3.45c-1.37,0-1.55.5-1.55,2.05v19.32c0,1.55.43,1.94,1.72,1.94h4.53c4.02,0,5.78-2.48,6.97-8.4h1.65l-.68,10.02Z"/><path class="cls-2" d="M599.79,388.81c-2.41,0-3.45-2.41-3.84-3.34-.79.83-3.27,3.34-6.65,3.34-3.09,0-5.46-1.76-5.46-4.74,0-4.6,4.56-6,11.82-7.22v-2.26c0-1.54,0-4.1-3.56-4.1-2.98,0-3.02,1.22-3.05,2.44-.07,2.3-1.44,2.66-2.3,2.66-1.4,0-1.98-1.11-1.98-1.94,0-1.98,2.34-4.85,7.65-4.85,1.18,0,6.65,0,6.65,4.92v8.98c0,2.12,0,4.02,1.51,4.02.61,0,1.08-.25,1.58-.5v1.87c-.72.39-1.47.72-2.37.72ZM595.66,378.54c-6.39.97-8.12,2.34-8.12,5.14,0,1.58.76,3.23,2.8,3.23,1.79,0,3.66-1.58,5.32-3.16v-5.21Z"/><path class="cls-2" d="M630.4,370.74c-1.51,0-2.34.9-2.77,2.33l-4.64,15.41h-2.26l-4.42-13.08h-.07l-3.88,13.08h-2.44l-5.17-15.88c-.47-1.47-.97-1.87-2.08-1.87h-.5v-1.62h8.05v1.62h-1.18c-.32,0-1.29,0-1.29.83,0,.14.04.47.14.75l3.95,12.14h.07l3.45-11.85c0-.43-.4-1.87-2.08-1.87h-.9v-1.62h8.37v1.62h-.79c-.5,0-1.55,0-1.55.93,0,.04.07.61.18.93l3.95,11.85h.07l3.16-10.85c.25-.9.29-1.19.29-1.4,0-1.4-1.4-1.44-2.23-1.47v-1.62h6.57v1.62Z"/><path class="cls-2" d="M651.37,389.14c-3.02,0-6.04-.65-8.76-2.01l-.5-8.26h1.83c.4,2.48.72,4.27,1.98,5.96s3.23,2.51,5.25,2.51c3.38,0,5.53-2.26,5.53-4.78,0-2.23-1.37-3.56-3.7-4.74l-5.35-2.73c-1.94-1-5.03-2.62-5.03-6.68,0-3.81,2.98-7.11,8.62-7.11,2.77,0,5.46.65,7.94,1.83l.29,7.47h-1.76c-.47-5.21-3.52-7.51-6.68-7.51-2.62,0-4.71,1.55-4.71,3.99,0,1.69.75,3.09,3.56,4.45l5.1,2.51c2.01.97,5.6,2.73,5.6,7.26,0,5.28-4.78,7.83-9.2,7.83Z"/><path class="cls-2" d="M679.78,382.78c-.5,1.4-2.19,6.04-7.9,6.04s-8.23-4.49-8.23-9.74c0-8.4,5.82-10.27,9.09-10.27,3.77,0,6.46,2.41,6.46,4.88,0,1.58-.97,2.44-2.16,2.44-1.26,0-2.12-.9-2.12-1.9,0-.25.32-1.44.32-1.69,0-.79-.57-2.05-2.69-2.05-4.78,0-5.14,6.04-5.14,8.23,0,1.9.22,3.88.97,5.53.97,2.12,2.69,2.62,4.02,2.62,1.94,0,4.09-1.22,5.53-4.1h1.83Z"/><path class="cls-2" d="M693.36,388.49v-1.62h1.33c1.37,0,1.55-.54,1.55-2.01v-8.22c0-1.62.04-5.25-3.27-5.25-1.76,0-3.27,1.01-5.32,3.45v10.02c0,1.47.14,2.01,1.51,2.01h1.29v1.62h-9.23v-1.62h1.47c1.37,0,1.54-.54,1.54-2.01v-19.25c0-.9-.04-2.48-2.01-2.48h-1.37v-1.62l5.93-.47h.86v11.64c1.65-1.8,4.27-3.88,6.82-3.88,2.08,0,3.52,1.29,4.24,2.44.97,1.54.93,3.81.93,4.78v8.83c0,1.47.15,2.01,1.55,2.01h1.47v1.62h-9.3Z"/><path class="cls-2" d="M713.47,388.81c-4.17,0-8.76-2.98-8.76-9.99s4.56-10.02,8.76-10.02,8.8,3.05,8.8,10.02-4.6,9.99-8.8,9.99ZM713.47,370.49c-4.74,0-4.99,5.78-4.99,8.55,0,2.58.4,8.08,4.99,8.08s5.03-5.82,5.03-8.51-.43-8.12-5.03-8.12Z"/><path class="cls-2" d="M733.69,388.81c-4.17,0-8.76-2.98-8.76-9.99s4.56-10.02,8.76-10.02,8.8,3.05,8.8,10.02-4.6,9.99-8.8,9.99ZM733.69,370.49c-4.74,0-4.99,5.78-4.99,8.55,0,2.58.4,8.08,4.99,8.08s5.03-5.82,5.03-8.51-.43-8.12-5.03-8.12Z"/><path class="cls-2" d="M744.54,388.49v-1.62h2.16c1.37,0,1.54-.54,1.54-2.01v-19.25c0-1.15-.04-2.48-2.01-2.48h-1.69v-1.62l6.25-.47h.86v23.81c0,1.47.18,2.01,1.55,2.01h2.12v1.62h-10.78Z"/></svg>