<?xml version="1.0" encoding="UTF-8" standalone="no"?>
<!-- Created with Inkscape (http://www.inkscape.org/) -->

<svg
   xmlns:dc="http://purl.org/dc/elements/1.1/"
   xmlns:cc="http://creativecommons.org/ns#"
   xmlns:rdf="http://www.w3.org/1999/02/22-rdf-syntax-ns#"
   xmlns:svg="http://www.w3.org/2000/svg"
   xmlns="http://www.w3.org/2000/svg"
   xmlns:sodipodi="http://sodipodi.sourceforge.net/DTD/sodipodi-0.dtd"
   xmlns:inkscape="http://www.inkscape.org/namespaces/inkscape"
   width="174.99997mm"
   height="149.98703mm"
   viewBox="0 0 174.99997 149.98703"
   version="1.1"
   id="svg8"
   inkscape:version="0.92.5 (2060ec1f9f, 2020-04-08)"
   sodipodi:docname="SuffolkLITLab_navy_and_gold_on_transparent_bg_full_prod_favicon.svg"
   inkscape:export-filename="/home/brycew/Downloads/prod_full.png"
   inkscape:export-xdpi="96"
   inkscape:export-ydpi="96">
  <defs
     id="defs2">
    <path
       style="color:#000000;font-style:normal;font-variant:normal;font-weight:normal;font-stretch:normal;font-size:medium;line-height:normal;font-family:sans-serif;font-variant-ligatures:normal;font-variant-position:normal;font-variant-caps:normal;font-variant-numeric:normal;font-variant-alternates:normal;font-feature-settings:normal;text-indent:0;text-align:start;text-decoration:none;text-decoration-line:none;text-decoration-style:solid;text-decoration-color:#000000;letter-spacing:normal;word-spacing:normal;text-transform:none;writing-mode:lr-tb;direction:ltr;text-orientation:mixed;dominant-baseline:auto;baseline-shift:baseline;text-anchor:start;white-space:normal;shape-padding:0;clip-rule:nonzero;display:inline;overflow:visible;visibility:visible;opacity:1;isolation:auto;mix-blend-mode:normal;color-interpolation:sRGB;color-interpolation-filters:linearRGB;solid-color:#000000;solid-opacity:1;vector-effect:none;fill:none;fill-opacity:1;fill-rule:nonzero;stroke:none;stroke-width:0.86810279;stroke-linecap:butt;stroke-linejoin:miter;stroke-miterlimit:4;stroke-dasharray:none;stroke-dashoffset:0;stroke-opacity:1;color-rendering:auto;image-rendering:auto;shape-rendering:auto;text-rendering:auto;enable-background:accumulate"
       d="m 109.23336,152.8457 c -31.268253,0 -59.581353,7.10456 -80.111353,18.62328 -20.5300021,11.51871 -33.3125024,27.49161 -33.3125024,45.19878 0,17.70716 12.7825003,33.67817 33.3125024,45.19687 20.53,11.51871 48.8431,18.62328 80.111353,18.62328 31.26823,0 59.58133,-7.10457 80.11133,-18.62328 20.53,-11.5187 33.3125,-27.48971 33.3125,-45.19687 0,-17.70717 -12.7825,-33.68007 -33.3125,-45.19878 -20.53,-11.51872 -48.8431,-18.62328 -80.11133,-18.62328 z m 0,0.85857 c 31.13191,0 59.31114,7.08397 79.67383,18.50879 20.36268,11.42484 32.87305,27.1512 32.87305,44.4547 0,17.3035 -12.51037,33.02795 -32.87305,44.45279 -20.36269,11.42483 -48.54192,18.50878 -79.67383,18.50878 -31.131933,0 -59.311163,-7.08395 -79.673853,-18.50878 -20.3626924,-11.42484 -32.8730524,-27.14929 -32.8730524,-44.45279 0,-17.3035 12.51036,-33.02986 32.8730524,-44.4547 20.36269,-11.42482 48.54192,-18.50879 79.673853,-18.50879 z"
       id="path5784-2-8-3"
       inkscape:connector-curvature="0"
       inkscape:export-xdpi="96"
       inkscape:export-ydpi="96" />
    <path
       style="fill:#002e5d;fill-opacity:1;stroke:none;stroke-width:1.17937708;stroke-miterlimit:4;stroke-dasharray:none;stroke-opacity:1"
       d="m -40.138657,88.21184 a 70.587547,68.502671 0 0 0 -70.587553,-68.50268 70.587547,68.502671 0 0 0 -70.58754,68.50268 70.587547,68.502671 0 0 0 70.58754,68.50267 70.587547,68.502671 0 0 0 70.587553,-68.50267 z"
       id="path5964-8-4"
       inkscape:connector-curvature="0"
       inkscape:export-xdpi="96"
       inkscape:export-ydpi="96" />
    <path
       inkscape:export-ydpi="96"
       inkscape:export-xdpi="96"
       inkscape:connector-curvature="0"
       id="path5964-8-8"
       d="m -40.138657,88.21184 a 70.587547,68.502671 0 0 0 -70.587553,-68.50268 70.587547,68.502671 0 0 0 -70.58754,68.50268 70.587547,68.502671 0 0 0 70.58754,68.50267 70.587547,68.502671 0 0 0 70.587553,-68.50267 z"
       style="fill:#002e5d;fill-opacity:1;stroke:none;stroke-width:1.17937708;stroke-miterlimit:4;stroke-dasharray:none;stroke-opacity:1" />
  </defs>
  <sodipodi:namedview
     id="base"
     pagecolor="#ffffff"
     bordercolor="#666666"
     borderopacity="1.0"
     inkscape:pageopacity="0.0"
     inkscape:pageshadow="2"
     inkscape:zoom="0.74623008"
     inkscape:cx="28.751364"
     inkscape:cy="133.57831"
     inkscape:document-units="mm"
     inkscape:current-layer="g6142"
     showgrid="false"
     inkscape:window-width="1854"
     inkscape:window-height="1136"
     inkscape:window-x="66"
     inkscape:window-y="27"
     inkscape:window-maximized="1"
     showguides="true"
     inkscape:pagecheckerboard="false"
     fit-margin-top="2.5"
     fit-margin-left="2.5"
     fit-margin-bottom="2.5"
     fit-margin-right="2.5"
     showborder="false">
    <inkscape:grid
       type="xygrid"
       id="grid6478"
       originx="-121.99999"
       originy="-60.866446" />
  </sodipodi:namedview>
  <metadata
     id="metadata5">
    <rdf:RDF>
      <cc:Work
         rdf:about="">
        <dc:format>image/svg+xml</dc:format>
        <dc:type
           rdf:resource="http://purl.org/dc/dcmitype/StillImage" />
        <dc:title></dc:title>
      </cc:Work>
    </rdf:RDF>
  </metadata>
  <g
     inkscape:label="Layer 1"
     inkscape:groupmode="layer"
     id="layer1"
     transform="translate(-61.000003,-89.564249)">
    <g
       transform="matrix(2.3479043,0,0,2.3479043,-463.82753,-112.20343)"
       id="g6142">
      <g
         id="g5843">
        <rect
           style="fill:#315ad3;fill-opacity:1;stroke:none;stroke-width:0.78372407;stroke-miterlimit:4;stroke-dasharray:none;stroke-opacity:1"
           id="rect819-71-5-1-5-3-7-6"
           width="12.541334"
           height="61.020008"
           x="224.59499"
           y="87.000168"
           inkscape:export-xdpi="96"
           inkscape:export-ydpi="96" />
        <path
           sodipodi:nodetypes="ccccccc"
           inkscape:connector-curvature="0"
           id="rect819-7-4-3-1-3-6-4-2"
           d="m 224.595,87.000002 c 0,20.583898 0,41.167788 0,61.751678 h 26.74923 l -0.009,-12.54966 H 237.13615 V 87.000002 Z"
           style="fill:#002e5d;fill-opacity:1;stroke:none;stroke-width:0.51898015;stroke-miterlimit:4;stroke-dasharray:none;stroke-opacity:1" />
        <path
           sodipodi:nodetypes="ccccccccc"
           inkscape:connector-curvature="0"
           id="rect819-7-5-8-8-3-1-5-7-6"
           d="m 296.99997,87.000003 h -55.72961 v 12.621701 h 37.23326 v 49.129976 h 12.54114 V 99.621704 h 5.95521 z"
           style="fill:#002e5d;fill-opacity:1;stroke:none;stroke-width:0.74922508;stroke-miterlimit:4;stroke-dasharray:none;stroke-opacity:1" />
        <path
           sodipodi:nodetypes="ccccccccc"
           inkscape:connector-curvature="0"
           id="rect819-2-6-0-9-0-4-6-2-1"
           d="m 255.32478,126.78773 v 9.63274 h -0.007 l 0.007,12.33121 h 19.06339 l -0.007,-12.54966 h -6.51543 v -9.41429 z"
           style="fill:#002e5d;fill-opacity:1;stroke:none;stroke-width:0.46744543;stroke-miterlimit:4;stroke-dasharray:none;stroke-opacity:1" />
        <path
           style="fill:#a5860c;fill-opacity:1;stroke:none;stroke-width:0.21408518px;stroke-linecap:butt;stroke-linejoin:miter;stroke-opacity:1"
           d="m 257.13789,111.66509 c -0.82595,-1.86943 -2.18383,-1.8967 -2.48065,-4.83458 -2.74345,6.55771 -5.19332,13.69838 1.68485,17.78802 -2.4845,-3.03863 -0.83385,-6.14592 -0.43081,-8.73471 1.58664,2.33417 2.31226,3.38242 3.95207,4.14832 -0.54846,-2.58285 1.56162,-4.08626 1.0768,-7.14855 3.14499,2.2061 3.78952,5.16698 3.5583,6.97354 1.82766,-1.26792 1.72269,-2.20373 2.7431,-3.44921 0.60883,2.50465 0.96948,4.50541 -0.66934,8.1856 7.51441,-6.85607 2.99765,-9.22308 1.04026,-18.52563 -0.89226,3.64553 -2.79391,6.21145 -2.79391,6.21145 -0.15504,-5.07233 -3.54158,-6.55702 -4.1935,-9.86159 -1.88578,4.06245 -1.28524,6.0501 -3.48717,9.24734 z"
           id="path942-8-7-6-19-4-2-3"
           inkscape:connector-curvature="0"
           sodipodi:nodetypes="ccccccccccccc"
           inkscape:export-xdpi="96"
           inkscape:export-ydpi="96" />
      </g>
      <g
         id="g5338-3-6"
         transform="translate(95.749792,-21.618837)" />
      <text
         xml:space="preserve"
         style="font-style:normal;font-variant:normal;font-weight:normal;font-stretch:normal;font-size:9.01513195px;line-height:1.25;font-family:Ubuntu;-inkscape-font-specification:'Ubuntu, Normal';font-variant-ligatures:normal;font-variant-caps:normal;font-variant-numeric:normal;font-feature-settings:normal;text-align:center;letter-spacing:0px;word-spacing:0px;writing-mode:lr-tb;text-anchor:middle;fill:#000000;fill-opacity:1;stroke:none;stroke-width:0.11268915"
         x="281.06549"
         y="136.52747"
         id="text883"><tspan
           sodipodi:role="line"
           id="tspan881"
           x="281.06549"
           y="144.93401"
           style="stroke-width:0.11268915" /></text>
    </g>
  </g>
</svg>
