<?xml version="1.0" encoding="UTF-8" standalone="no"?>
<!-- Created with Inkscape (http://www.inkscape.org/) -->

<svg
   xmlns:dc="http://purl.org/dc/elements/1.1/"
   xmlns:cc="http://creativecommons.org/ns#"
   xmlns:rdf="http://www.w3.org/1999/02/22-rdf-syntax-ns#"
   xmlns:svg="http://www.w3.org/2000/svg"
   xmlns="http://www.w3.org/2000/svg"
   xmlns:sodipodi="http://sodipodi.sourceforge.net/DTD/sodipodi-0.dtd"
   xmlns:inkscape="http://www.inkscape.org/namespaces/inkscape"
   width="177.981mm"
   height="152.97086mm"
   viewBox="0 0 177.981 152.97085"
   version="1.1"
   id="svg8"
   inkscape:version="0.92.5 (2060ec1f9f, 2020-04-08)"
   sodipodi:docname="SuffolkLITLab_white_and_gold.svg"
   inkscape:export-filename="C:\Users\dcolarusso\Desktop\sample logos.png"
   inkscape:export-xdpi="96"
   inkscape:export-ydpi="96">
  <defs
     id="defs2">
    <path
       style="color:#000000;font-style:normal;font-variant:normal;font-weight:normal;font-stretch:normal;font-size:medium;line-height:normal;font-family:sans-serif;font-variant-ligatures:normal;font-variant-position:normal;font-variant-caps:normal;font-variant-numeric:normal;font-variant-alternates:normal;font-feature-settings:normal;text-indent:0;text-align:start;text-decoration:none;text-decoration-line:none;text-decoration-style:solid;text-decoration-color:#000000;letter-spacing:normal;word-spacing:normal;text-transform:none;writing-mode:lr-tb;direction:ltr;text-orientation:mixed;dominant-baseline:auto;baseline-shift:baseline;text-anchor:start;white-space:normal;shape-padding:0;clip-rule:nonzero;display:inline;overflow:visible;visibility:visible;opacity:1;isolation:auto;mix-blend-mode:normal;color-interpolation:sRGB;color-interpolation-filters:linearRGB;solid-color:#000000;solid-opacity:1;vector-effect:none;fill:none;fill-opacity:1;fill-rule:nonzero;stroke:none;stroke-width:0.86810279;stroke-linecap:butt;stroke-linejoin:miter;stroke-miterlimit:4;stroke-dasharray:none;stroke-dashoffset:0;stroke-opacity:1;color-rendering:auto;image-rendering:auto;shape-rendering:auto;text-rendering:auto;enable-background:accumulate"
       d="m 109.23336,152.8457 c -31.268253,0 -59.581353,7.10456 -80.111353,18.62328 -20.5300021,11.51871 -33.3125024,27.49161 -33.3125024,45.19878 0,17.70716 12.7825003,33.67817 33.3125024,45.19687 20.53,11.51871 48.8431,18.62328 80.111353,18.62328 31.26823,0 59.58133,-7.10457 80.11133,-18.62328 20.53,-11.5187 33.3125,-27.48971 33.3125,-45.19687 0,-17.70717 -12.7825,-33.68007 -33.3125,-45.19878 -20.53,-11.51872 -48.8431,-18.62328 -80.11133,-18.62328 z m 0,0.85857 c 31.13191,0 59.31114,7.08397 79.67383,18.50879 20.36268,11.42484 32.87305,27.1512 32.87305,44.4547 0,17.3035 -12.51037,33.02795 -32.87305,44.45279 -20.36269,11.42483 -48.54192,18.50878 -79.67383,18.50878 -31.131933,0 -59.311163,-7.08395 -79.673853,-18.50878 -20.3626924,-11.42484 -32.8730524,-27.14929 -32.8730524,-44.45279 0,-17.3035 12.51036,-33.02986 32.8730524,-44.4547 20.36269,-11.42482 48.54192,-18.50879 79.673853,-18.50879 z"
       id="path5784-2-8-3"
       inkscape:connector-curvature="0"
       inkscape:export-xdpi="96"
       inkscape:export-ydpi="96" />
    <path
       style="fill:#002e5d;fill-opacity:1;stroke:none;stroke-width:1.17937708;stroke-miterlimit:4;stroke-dasharray:none;stroke-opacity:1"
       d="m -40.138657,88.21184 a 70.587547,68.502671 0 0 0 -70.587553,-68.50268 70.587547,68.502671 0 0 0 -70.58754,68.50268 70.587547,68.502671 0 0 0 70.58754,68.50267 70.587547,68.502671 0 0 0 70.587553,-68.50267 z"
       id="path5964-8-4"
       inkscape:connector-curvature="0"
       inkscape:export-xdpi="96"
       inkscape:export-ydpi="96" />
    <path
       inkscape:export-ydpi="96"
       inkscape:export-xdpi="96"
       inkscape:connector-curvature="0"
       id="path5964-8-8"
       d="m -40.138657,88.21184 a 70.587547,68.502671 0 0 0 -70.587553,-68.50268 70.587547,68.502671 0 0 0 -70.58754,68.50268 70.587547,68.502671 0 0 0 70.58754,68.50267 70.587547,68.502671 0 0 0 70.587553,-68.50267 z"
       style="fill:#002e5d;fill-opacity:1;stroke:none;stroke-width:1.17937708;stroke-miterlimit:4;stroke-dasharray:none;stroke-opacity:1" />
  </defs>
  <sodipodi:namedview
     id="base"
     pagecolor="#ffffff"
     bordercolor="#666666"
     borderopacity="1.0"
     inkscape:pageopacity="0.0"
     inkscape:pageshadow="2"
     inkscape:zoom="0.74623006"
     inkscape:cx="495.75823"
     inkscape:cy="223.08622"
     inkscape:document-units="mm"
     inkscape:current-layer="layer1"
     showgrid="false"
     inkscape:window-width="1854"
     inkscape:window-height="1136"
     inkscape:window-x="66"
     inkscape:window-y="27"
     inkscape:window-maximized="1"
     showguides="true"
     inkscape:pagecheckerboard="true"
     fit-margin-top="4"
     fit-margin-left="4"
     fit-margin-right="4"
     fit-margin-bottom="4">
    <inkscape:grid
       type="xygrid"
       id="grid6478"
       originx="-59.500049"
       originy="-55.962521" />
  </sodipodi:namedview>
  <metadata
     id="metadata5">
    <rdf:RDF>
      <cc:Work
         rdf:about="">
        <dc:format>image/svg+xml</dc:format>
        <dc:type
           rdf:resource="http://purl.org/dc/dcmitype/StillImage" />
        <dc:title></dc:title>
      </cc:Work>
    </rdf:RDF>
  </metadata>
  <g
     inkscape:label="Layer 1"
     inkscape:groupmode="layer"
     id="layer1"
     transform="translate(-59.500038,-88.066593)">
    <g
       id="g5459"
       transform="matrix(2.3476424,0,0,2.3476424,63.500019,-410.25831)">
      <rect
         inkscape:export-ydpi="96"
         inkscape:export-xdpi="96"
         y="213.97011"
         x="8.191324e-06"
         height="61.020012"
         width="12.541334"
         id="rect819-71-5-1-5-3-7-8"
         style="fill:#ffffff;fill-opacity:1;stroke:none;stroke-width:0.78372407;stroke-miterlimit:4;stroke-dasharray:none;stroke-opacity:1" />
      <path
         style="fill:#ffffff;fill-opacity:1;stroke:none;stroke-width:0.51898015;stroke-miterlimit:4;stroke-dasharray:none;stroke-opacity:1"
         d="m 1.9197504e-5,213.96994 v 61.75168 H 26.749251 l -0.0094,-12.54966 H 12.541173 v -49.20188 z"
         id="rect819-7-4-3-1-3-6-4-3"
         inkscape:connector-curvature="0"
         sodipodi:nodetypes="ccccccc" />
      <path
         style="fill:#ffffff;fill-opacity:1;stroke:none;stroke-width:0.74922508;stroke-miterlimit:4;stroke-dasharray:none;stroke-opacity:1"
         d="M 72.404986,213.97008 H 16.675384 v 12.62156 h 37.233253 v 49.12998 h 12.541147 v -49.12998 h 5.955202 z"
         id="rect819-7-5-8-8-3-1-5-7-4"
         inkscape:connector-curvature="0"
         sodipodi:nodetypes="ccccccccc" />
      <path
         style="fill:#ffffff;fill-opacity:1;stroke:none;stroke-width:0.46744543;stroke-miterlimit:4;stroke-dasharray:none;stroke-opacity:1"
         d="m 30.729803,253.75767 v 9.63274 h -0.0068 l 0.0068,12.33121 h 19.063382 l -0.0068,-12.54966 h -6.515432 v -9.41429 z"
         id="rect819-2-6-0-9-0-4-6-2-7"
         inkscape:connector-curvature="0"
         sodipodi:nodetypes="ccccccccc" />
      <path
         inkscape:export-ydpi="96"
         inkscape:export-xdpi="96"
         sodipodi:nodetypes="ccccccccccccc"
         inkscape:connector-curvature="0"
         id="path942-8-7-6-19-4-2-7"
         d="m 32.542911,238.63503 c -0.825957,-1.86943 -2.183836,-1.8967 -2.480655,-4.83458 -2.743454,6.55771 -5.193317,13.69839 1.684855,17.78802 -2.484507,-3.03863 -0.833852,-6.14592 -0.430811,-8.73471 1.586635,2.33417 2.312256,3.38242 3.952068,4.14832 -0.548462,-2.58285 1.561614,-4.08626 1.076802,-7.14855 3.144989,2.2061 3.789514,5.16698 3.558297,6.97354 1.827658,-1.26792 1.722686,-2.20373 2.7431,-3.44921 0.608827,2.50465 0.969484,4.50541 -0.66934,8.18561 7.514408,-6.85608 2.99765,-9.22309 1.040256,-18.52564 -0.892258,3.64553 -2.793906,6.21145 -2.793906,6.21145 -0.155037,-5.07233 -3.541584,-6.55702 -4.193503,-9.86159 -1.885775,4.06245 -1.285238,6.0501 -3.487163,9.24734 z"
         style="fill:#e9c539;fill-opacity:1;stroke:none;stroke-width:0.21408518px;stroke-linecap:butt;stroke-linejoin:miter;stroke-opacity:1" />
    </g>
  </g>
</svg>
