<?xml version="1.0" encoding="UTF-8"?><svg id="Layer_2" xmlns="http://www.w3.org/2000/svg" viewBox="0 0 697 406.91"><defs><style>.cls-1{fill:#f3b120;}.cls-1,.cls-2{stroke-width:0px;}.cls-2{fill:#fff;}</style></defs><g id="DUO"><g id="Duo-Short"><path class="cls-2" d="M245.26,193.64c0-11.84,5.92-17.77,17.77-17.77h21c11.85,0,17.77,5.93,17.77,17.77v164.8h76.58c11.84,0,17.77,5.93,17.77,17.77v12.93c0,11.85-5.93,17.77-17.77,17.77h-115.36c-11.85,0-17.77-5.92-17.77-17.77v-195.5Z"/><path class="cls-2" d="M419.43,193.64c0-11.84,5.92-17.77,17.77-17.77h21c11.85,0,17.77,5.93,17.77,17.77v195.5c0,11.85-5.93,17.77-17.77,17.77h-21c-11.85,0-17.77-5.92-17.77-17.77v-195.5Z"/><path class="cls-2" d="M570.33,224.34h-52.35c-11.85,0-17.77-5.92-17.77-17.77v-12.93c0-11.84,5.92-17.77,17.77-17.77h161.25c11.84,0,17.77,5.93,17.77,17.77v12.93c0,11.85-5.93,17.77-17.77,17.77h-52.35v164.8c0,11.85-5.93,17.77-17.77,17.77h-21c-11.85,0-17.77-5.92-17.77-17.77v-164.8Z"/><path class="cls-1" d="M179.75,195.71h-8.72c-3.58,0-6.49-2.91-6.49-6.49v-31.85c0-4.89-2.48-9.44-6.59-12.09l-13.32-8.58c-3.77-2.43-6.06-6.61-6.06-11.1V43.38c0-4.66-2.37-9-6.28-11.52L85.09,1.46c-3.02-1.94-6.89-1.94-9.91,0L28.33,31.64c-4.13,2.66-6.62,7.23-6.62,12.14v145.44c0,3.58-2.91,6.49-6.49,6.49H6.5c-3.59,0-6.5,2.91-6.5,6.5h0c0,14.88,7.94,27.94,19.81,35.17,1.15.7,1.9,1.89,2.02,3.23,1.24,13.6,9.11,25.31,20.36,31.84,1.96,1.14,3.32,3.08,3.67,5.31l17.57,112.95c1.45,9.32,9.47,16.19,18.91,16.19h21.57c9.43,0,17.46-6.87,18.91-16.19l17.57-112.95c.35-2.24,1.71-4.18,3.67-5.31,11.24-6.54,19.12-18.24,20.36-31.84.12-1.34.86-2.53,2.01-3.23,11.89-7.23,19.84-20.32,19.82-35.22,0-3.57-2.93-6.45-6.5-6.45ZM138.57,154.57c0-2.73,3.02-4.38,5.32-2.9l3.71,2.39c2.46,1.59,3.95,4.31,3.95,7.24v27.91c0,3.57-2.92,6.49-6.49,6.49h-.03c-3.57,0-6.46-2.89-6.46-6.46v-34.67ZM60.72,189.28v-88.64c0-4.53,2.3-8.74,6.1-11.19l2.68-1.73c1.79-1.15,4.14.13,4.14,2.26v99.27c0,3.55-2.91,6.46-6.46,6.46h-.03c-3.55,0-6.43-2.88-6.43-6.43ZM86.63,22.25c0-1.88,2.08-3.02,3.67-2l31.89,20.54c2.12,1.36,3.4,3.71,3.4,6.23v74.56c0,1.23-1.36,1.98-2.4,1.31l-5.39-3.47c-3.24-2.09-5.2-5.67-5.2-9.53v-52.05c0-4.84-2.46-9.36-6.53-11.98l-16.12-10.38c-2.06-1.33-3.31-3.62-3.31-6.07v-7.14ZM86.63,53.44c0-2.01,2.22-3.22,3.91-2.13l6.39,4.12c1.67,1.08,2.68,2.93,2.68,4.91v44.35c0,1.31-1.45,2.1-2.55,1.39l-5.48-3.53c-3.09-1.99-4.96-5.42-4.96-9.1v-40ZM86.63,121.97c0-3.1,3.43-4.97,6.03-3.29l28.17,18.14c2.96,1.91,4.75,5.19,4.75,8.71v41.43c0,4.82-3.9,8.73-8.72,8.75h-21.51c-4.82-.02-8.72-3.93-8.72-8.75v-64.99ZM34.69,189.22V48.75c0-3.59,1.82-6.94,4.84-8.88l28.95-18.65c2.23-1.43,5.16.16,5.16,2.81v40.59c0,3.11-1.58,6.02-4.2,7.7l-14.96,9.64c-4.21,2.71-6.75,7.37-6.75,12.37v94.86c0,3.59-2.93,6.52-6.52,6.52h-.04c-3.58,0-6.49-2.9-6.49-6.49ZM125.95,286.06l-15.61,100.32c-.63,4.05-3.93,7.27-8.02,7.52-5.02.31-9.2-3.67-9.2-8.63v-87.49c0-10.93,8.86-19.78,19.78-19.78,0,0,2.87-.01,6.05-.04,4.33-.04,7.66,3.82,6.99,8.1ZM148.77,249.13c-4.57,9.39-14.2,15.88-25.33,15.88h-60.64c-11.13,0-20.76-6.49-25.33-15.88-1.3-2.67.7-5.78,3.67-5.78h103.95s0,0,0,0c2.97,0,4.97,3.11,3.67,5.78ZM170.01,215.31c-4.72,8.94-14.12,15.04-24.91,15.04H41.15c-10.79,0-20.19-6.11-24.91-15.04-1.59-3,.64-6.61,4.03-6.61h145.71c3.39,0,5.62,3.61,4.03,6.61Z"/></g></g></svg>